<svg xmlns="http://www.w3.org/2000/svg" viewBox="0 0 779.93 550.27"><defs><style>.cls-1{isolation:isolate;}.cls-2,.cls-34,.cls-55{fill:none;stroke-miterlimit:10;}.cls-2{stroke:#716f82;stroke-width:7px;}.cls-3{fill:#072050;}.cls-4{fill:#747282;}.cls-5{fill:#2d2d3a;}.cls-6{fill:#fff;}.cls-7{fill:#a29fb0;}.cls-8{fill:#6e89c4;}.cls-9{fill:#ea5444;}.cls-10{fill:#ffc543;}.cls-11{fill:#a2cc3b;}.cls-12{fill:#313d6e;}.cls-13{fill:#678c6e;}.cls-14{fill:#c5cbed;}.cls-14,.cls-42{opacity:0.55;mix-blend-mode:overlay;}.cls-15{fill:#7c4b39;}.cls-16{fill:#fcbba4;}.cls-17{fill:#ffc7b0;}.cls-18,.cls-19{fill:#081344;}.cls-19{opacity:0.2;}.cls-20{fill:#716f82;}.cls-21{fill:#b1aec1;}.cls-22{fill:#585668;}.cls-23{fill:#ddd;}.cls-24{fill:#767684;}.cls-25{fill:#1f3468;}.cls-26{fill:#aba9c4;}.cls-27{fill:#4a4960;}.cls-28{fill:#e79271;}.cls-29{fill:#a5483c;}.cls-30{fill:#84352f;}.cls-31{fill:#7f3954;}.cls-32{fill:#6e3856;}.cls-33{fill:#df7d54;}.cls-34,.cls-55{stroke:#081344;}.cls-34{stroke-linecap:round;stroke-width:1.49px;}.cls-35{fill:#1c1c2d;}.cls-36{fill:#a0523a;}.cls-37,.cls-40{fill:#25253a;}.cls-38{fill:#9f293b;}.cls-39{fill:#f14747;}.cls-40{opacity:0.32;mix-blend-mode:multiply;}.cls-41{fill:#eceef0;}.cls-42{fill:#cdd6f9;}.cls-43{fill:#fc4f42;}.cls-44{fill:#ce2d29;opacity:0.79;}.cls-45{fill:#6075b0;}.cls-46{fill:#794061;}.cls-47{fill:#072859;}.cls-48{fill:#f3885e;}.cls-49{fill:#ffbe62;}.cls-50{fill:#fbaf3d;}.cls-51{fill:#ffd72e;}.cls-52{fill:#f38154;}.cls-53{fill:#709b2c;}.cls-54{fill:#4c842f;}.cls-55{stroke-width:4.59px;}.cls-56{fill:#517f38;}.cls-57{fill:#3b6837;}.cls-58{fill:#65b15b;}.cls-59{fill:#62324a;}</style></defs><g class="cls-1"><g id="Layer_2" data-name="Layer 2"><g id="Layer_1-2" data-name="Layer 1"><line class="cls-2" y1="534.44" x2="779.93" y2="534.44"/><rect class="cls-3" x="112.88" y="131.34" width="66.12" height="142.22" transform="translate(291.89 404.91) rotate(180)"/><path class="cls-4" d="M39.44,78.08h212a0,0,0,0,1,0,0V215a8.67,8.67,0,0,1-8.67,8.67H48.12A8.67,8.67,0,0,1,39.44,215V78.08A0,0,0,0,1,39.44,78.08Z" transform="translate(290.91 301.74) rotate(180)"/><path class="cls-4" d="M59.78,219.6H235.13a18.31,18.31,0,0,1,18.31,18.31v7a0,0,0,0,1,0,0h-212a0,0,0,0,1,0,0v-7A18.31,18.31,0,0,1,59.78,219.6Z" transform="translate(294.91 464.52) rotate(180)"/><path class="cls-5" d="M258.89,86.75V223.66l-52-.83L152.4,222l-17.2-.28-55-.88-33.3-.53V86.75a8.67,8.67,0,0,1,8.67-8.66H250.21A8.67,8.67,0,0,1,258.89,86.75Z"/><rect class="cls-6" x="54.78" y="89.82" width="196.19" height="122.39" rx="0.8"/><path class="cls-7" d="M65.19,219.6H240.54a18.31,18.31,0,0,1,18.31,18.31v7a0,0,0,0,1,0,0h-212a0,0,0,0,1,0,0v-7A18.31,18.31,0,0,1,65.19,219.6Z" transform="translate(305.74 464.52) rotate(180)"/><path class="cls-7" d="M111.22,274.11h88.62a4.93,4.93,0,0,0,4.93-4.92h0a4.93,4.93,0,0,0-4.93-4.92H111.22a4.93,4.93,0,0,0-4.93,4.92h0A4.93,4.93,0,0,0,111.22,274.11Z"/><rect class="cls-8" x="64.74" y="95.65" width="179.55" height="15.42" rx="2.63"/><path class="cls-9" d="M78.34,103.12a3.29,3.29,0,1,1-3.29-3.37A3.33,3.33,0,0,1,78.34,103.12Z"/><ellipse class="cls-10" cx="87.04" cy="103.12" rx="3.29" ry="3.37"/><ellipse class="cls-11" cx="99.04" cy="103.12" rx="3.29" ry="3.37"/><rect class="cls-12" x="64.28" y="117.2" width="61.41" height="20.93" rx="1.58"/><rect class="cls-13" x="135.78" y="143.64" width="61.41" height="20.93" rx="1.58"/><rect class="cls-13" x="205.9" y="117.2" width="38.39" height="20.93" rx="1.58"/><rect class="cls-9" x="205.9" y="144.05" width="38.39" height="20.93" rx="1.58"/><rect class="cls-3" x="136.23" y="133.96" width="61.41" height="1.5"/><rect class="cls-3" x="136.23" y="128.62" width="61.41" height="1.5"/><rect class="cls-3" x="136.23" y="123.28" width="61.41" height="1.5"/><rect class="cls-3" x="136.23" y="117.93" width="61.41" height="1.5"/><rect class="cls-9" x="64.28" y="169.67" width="61.41" height="20.93" rx="1.58"/><rect class="cls-3" x="136.23" y="186.43" width="61.41" height="1.5"/><rect class="cls-3" x="136.23" y="181.09" width="61.41" height="1.5"/><rect class="cls-3" x="136.23" y="175.74" width="61.41" height="1.5"/><rect class="cls-3" x="136.23" y="170.4" width="61.41" height="1.5"/><rect class="cls-3" x="64.05" y="159.57" width="61.41" height="1.5"/><rect class="cls-3" x="64.05" y="154.23" width="61.41" height="1.5"/><rect class="cls-3" x="64.05" y="148.89" width="61.41" height="1.5"/><rect class="cls-3" x="64.05" y="143.55" width="61.41" height="1.5"/><polygon class="cls-14" points="218.09 78.09 152.4 219.8 80.16 219.8 145.33 78.09 218.09 78.09"/><path class="cls-15" d="M265.69,7.55,279.26,16a22.22,22.22,0,0,1,8.1,29,32.28,32.28,0,0,0-1.57,3.22C286.3,47.58,265,7.72,265,7.72"/><rect class="cls-16" x="211.62" y="80.93" width="30.45" height="56.44" rx="11.72"/><path class="cls-15" d="M285.55,48.17c.32,2.66-12.14,7.15-12.29,10l2,5.63c-15.3-5.55-1.8,2.9-1.8,2.93-4.55,13.48-3,20.93-15.95,26.06a47.45,47.45,0,0,1-21,3.2c-9.92-.69-18.73,2.41-25.93-1a15.18,15.18,0,0,1-4.23-3,49.13,49.13,0,0,1-6.7-8.33c-.73-1.2-1.44-2.39-2.09-3.65-3.92-7.55-11.92-29.74-11.27-38.85,1.8-25.7,26.42-42.91,54.76-41,.74.05,1.45.06,2.18.1a47.87,47.87,0,0,1,36.38,21c.42.63.84,1.27,1.23,1.92v0c2.31,3.75,3.54,19.79,3.54,19.79A28.54,28.54,0,0,1,285.55,48.17Z"/><path class="cls-17" d="M284.41,56.39l-.36,7.06-.6,11.7-1,4.15c-.08,1.84-1,11.53-1.35,13.28-3.22,16.56-14.09,20.08-31,22.17a11.48,11.48,0,0,1-1.53.15,37.58,37.58,0,0,1-10.78-.53,38,38,0,0,1-9.61-3.09l0,0a39.61,39.61,0,0,1-17.56-16.33,38.25,38.25,0,0,1-5-17.83c0-.44,0-.88,0-1.34a14.48,14.48,0,0,1,0-1.6v-.27l0-1.27.19-3.33.56-11.49,0-.11v0l.11-2.13.08-1.66.08-1.53,0-.39a30.86,30.86,0,0,1,1.49-7.66,36.88,36.88,0,0,1,1.88-5c.11-.25.19-.48.32-.73a31.68,31.68,0,0,1,2-3.87v0a39.15,39.15,0,0,1,11.18-12c.9-.65,1.84-1.26,2.78-1.82A40.35,40.35,0,0,1,248.9,15.3c6.78.36,11.79,2.39,17.26,5.68A39.58,39.58,0,0,1,275,28.24a38,38,0,0,1,7.81,13.84c.1.29.19.58.27.88a28.54,28.54,0,0,1,1.09,5.21A48.71,48.71,0,0,1,284.41,56.39Z"/><path class="cls-15" d="M270.16,21.42c8.28,22.8-13.51,20.94-14.52,31.41a95.48,95.48,0,0,0-.85,11.49l-1.66,5.37a3.94,3.94,0,0,1-7.71-1.11v-.11l.19-8.54-4.25,11.26a64.51,64.51,0,0,1-30.49,34.46s-26.59-15.81-26.59-51.89a78.29,78.29,0,0,1,.53-9,59.08,59.08,0,0,1,1.42-7.87c11-44.84,66.1-29.54,71.4-27.55C263.2,11.45,270.16,21.42,270.16,21.42Z"/><path class="cls-17" d="M289.1,80.56c0,.07,0,.59,0,.59-.07,2.47-2.21,4.43-7.5,4.27l.74-19.25C286.63,72.72,288.71,76.53,289.1,80.56Z"/><path class="cls-15" d="M286.22,57.25H274.44A2.49,2.49,0,0,1,272,54.77h0a2.49,2.49,0,0,1,2.48-2.49h11.78a2.49,2.49,0,0,1,2.48,2.49h0A2.48,2.48,0,0,1,286.22,57.25Z"/><path class="cls-18" d="M279.6,66.12h0a1.78,1.78,0,0,1-1.77-1.78V61.73A1.78,1.78,0,0,1,279.6,60h0a1.78,1.78,0,0,1,1.78,1.78v2.61A1.78,1.78,0,0,1,279.6,66.12Z"/><path class="cls-19" d="M227.8,92.86a64.78,64.78,0,0,1-16.93,12.79s-26.59-15.81-26.59-51.89a78.29,78.29,0,0,1,.53-9,59.08,59.08,0,0,1,1.42-7.87c1.17,6.86,4.27,17.26,12.18,30.12C210.45,86.58,223.51,91.66,227.8,92.86Z"/><path class="cls-15" d="M281.49,91.39l-.35,13.47c0,11.49-13.6,16.1-23.7,15l-16.09-1.74L243,104.18l4.39-26.68-7.09-19.94,14.61,6.07v0c-1.11,15.84,10.24,28.64,26.1,27.91Z"/><path class="cls-16" d="M244.46,57.07a2.94,2.94,0,0,1,2.92,3l-.06,10-.07,8.75-3.45,0a4.53,4.53,0,0,1-.74,0,11.29,11.29,0,0,1-10.27-11.23,10.4,10.4,0,0,1,3.3-7.5A10.69,10.69,0,0,1,243,57.1h0a5.31,5.31,0,0,1,.89,0Z"/><rect class="cls-18" x="141.08" y="350.31" width="92.6" height="17.07" transform="translate(374.76 717.7) rotate(180)"/><line class="cls-12" x1="109.49" y1="509.58" x2="109.49" y2="516.13"/><rect class="cls-20" x="495.15" y="351.75" width="84.82" height="17.07" transform="translate(1075.13 720.58) rotate(180)"/><rect class="cls-20" x="566.33" y="293.69" width="19.29" height="240.46"/><rect class="cls-21" x="488.86" y="292.25" width="19.29" height="241.9"/><rect class="cls-20" x="488.86" y="282.49" width="19.29" height="103.21"/><rect class="cls-20" x="32.49" y="351.75" width="84.82" height="17.07" transform="translate(149.8 720.58) rotate(180)"/><rect class="cls-20" x="103.66" y="293.69" width="19.29" height="240.46"/><rect class="cls-20" x="26.19" y="292.25" width="19.29" height="241.9"/><rect class="cls-22" x="383.14" y="132.17" width="63.67" height="136.95"/><path class="cls-23" d="M313.57,88h192.6a8.35,8.35,0,0,1,8.35,8.35V224.14a0,0,0,0,1,0,0H305.22a0,0,0,0,1,0,0V96.31A8.35,8.35,0,0,1,313.57,88Z"/><path class="cls-23" d="M303.25,220.24H512.5a0,0,0,0,1,0,0V227a17.63,17.63,0,0,1-17.63,17.63h-174A17.63,17.63,0,0,1,303.25,227v-6.75A0,0,0,0,1,303.25,220.24Z"/><path class="cls-24" d="M507.32,96.3V224.15H298V96.3A8.34,8.34,0,0,1,306.36,88H499A8.34,8.34,0,0,1,507.32,96.3Z"/><path class="cls-25" d="M499.7,96V212.36a.78.78,0,0,1-.78.77H306.4a.78.78,0,0,1-.77-.77V96a.77.77,0,0,1,.77-.77H498.92A.77.77,0,0,1,499.7,96Z"/><path class="cls-26" d="M507.3,220.24V227a17.64,17.64,0,0,1-17.64,17.64h-174A17.63,17.63,0,0,1,298,227v-6.75Z"/><rect class="cls-8" x="316.86" y="109.63" width="65.03" height="2.25"/><rect class="cls-23" x="410.09" y="109.63" width="30.79" height="2.25"/><rect class="cls-10" x="454.54" y="109.63" width="30.79" height="2.25"/><rect class="cls-8" x="443.62" y="109.63" width="7.28" height="2.25"/><rect class="cls-9" x="384.94" y="109.63" width="21.58" height="2.25"/><rect class="cls-8" x="316.86" y="167.26" width="65.03" height="2.25"/><rect class="cls-23" x="410.09" y="167.26" width="30.79" height="2.25"/><rect class="cls-10" x="454.54" y="167.26" width="30.79" height="2.25"/><rect class="cls-8" x="443.62" y="167.26" width="7.28" height="2.25"/><rect class="cls-7" x="384.94" y="167.26" width="21.58" height="2.25"/><rect class="cls-8" x="420.3" y="148.05" width="65.03" height="2.25" transform="translate(905.63 298.35) rotate(180)"/><rect class="cls-23" x="361.32" y="148.05" width="30.79" height="2.25" transform="translate(753.42 298.35) rotate(180)"/><rect class="cls-10" x="316.86" y="148.05" width="30.79" height="2.25" transform="translate(664.52 298.35) rotate(180)"/><rect class="cls-8" x="351.29" y="148.05" width="7.28" height="2.25" transform="translate(709.87 298.35) rotate(180)"/><rect class="cls-7" x="395.67" y="148.05" width="21.58" height="2.25" transform="translate(812.92 298.35) rotate(180)"/><rect class="cls-9" x="316.86" y="119.24" width="24.39" height="2.25"/><rect class="cls-8" x="389.77" y="119.24" width="10.47" height="2.25"/><rect class="cls-23" x="434.22" y="119.24" width="51.11" height="2.25"/><rect class="cls-8" x="402.97" y="119.24" width="27.6" height="2.25"/><rect class="cls-8" x="344.3" y="119.24" width="41.9" height="2.25"/><rect class="cls-8" x="316.86" y="176.86" width="24.39" height="2.25"/><rect class="cls-8" x="389.77" y="176.86" width="10.47" height="2.25"/><rect class="cls-8" x="434.22" y="176.86" width="51.11" height="2.25"/><rect class="cls-8" x="402.97" y="176.86" width="27.6" height="2.25"/><rect class="cls-8" x="344.3" y="176.86" width="41.9" height="2.25"/><rect class="cls-9" x="316.86" y="157.65" width="24.39" height="2.25"/><rect class="cls-8" x="389.77" y="157.65" width="10.47" height="2.25"/><rect class="cls-23" x="434.22" y="157.65" width="51.11" height="2.25"/><rect class="cls-8" x="402.97" y="157.65" width="27.6" height="2.25"/><rect class="cls-8" x="344.3" y="157.65" width="41.9" height="2.25"/><rect class="cls-23" x="316.86" y="128.84" width="24.39" height="2.25"/><rect class="cls-8" x="344.3" y="128.84" width="41.9" height="2.25"/><rect class="cls-23" x="361.81" y="138.44" width="24.39" height="2.25" transform="translate(748.02 279.14) rotate(180)"/><rect class="cls-8" x="316.86" y="138.44" width="41.9" height="2.25" transform="translate(675.63 279.14) rotate(180)"/><rect class="cls-27" x="355.25" y="263.25" width="94.83" height="9.48" rx="4.74"/><path class="cls-28" d="M340.63,272H594.49a7.62,7.62,0,0,1,7.62,7.62V293.5a0,0,0,0,1,0,0H333a0,0,0,0,1,0,0V279.59A7.62,7.62,0,0,1,340.63,272Z"/><path class="cls-29" d="M523.67,279.6v13.91H5.56V279.6A7.63,7.63,0,0,1,13.18,272H516.05A7.63,7.63,0,0,1,523.67,279.6Z"/><path class="cls-30" d="M373.76,272c-4.11,6.7-9,14.69-13.2,21.54H233.8L235.53,272Z"/><rect class="cls-31" x="629.04" y="367.31" width="133.14" height="166.84" transform="translate(1391.22 901.46) rotate(-180)"/><rect class="cls-32" x="581.86" y="367.31" width="130.85" height="166.84" transform="matrix(-1, 0, 0, -1, 1294.56, 901.46)"/><rect class="cls-33" x="580.36" y="379.8" width="124.12" height="45.14" transform="translate(1284.85 804.74) rotate(180)"/><rect class="cls-33" x="580.36" y="432.77" width="124.12" height="45.14" transform="translate(1284.85 910.67) rotate(180)"/><rect class="cls-33" x="580.36" y="485.73" width="124.12" height="48.42" transform="translate(1284.85 1019.88) rotate(180)"/><path class="cls-6" d="M619.86,404.79h31a2.43,2.43,0,0,0,2.42-2.42h0a2.43,2.43,0,0,0-2.42-2.42h-31a2.43,2.43,0,0,0-2.42,2.42h0A2.43,2.43,0,0,0,619.86,404.79Z"/><path class="cls-6" d="M618.65,457.38h31A2.43,2.43,0,0,0,652.1,455h0a2.43,2.43,0,0,0-2.42-2.42h-31a2.43,2.43,0,0,0-2.42,2.42h0A2.43,2.43,0,0,0,618.65,457.38Z"/><path class="cls-6" d="M618.65,510h31a2.43,2.43,0,0,0,2.42-2.42h0a2.43,2.43,0,0,0-2.42-2.42h-31a2.43,2.43,0,0,0-2.42,2.42h0A2.43,2.43,0,0,0,618.65,510Z"/><path class="cls-31" d="M278.28,544.35l62.19.66a6.71,6.71,0,0,0,6.78-6.64h0a6.72,6.72,0,0,0-4.43-6.39l-30.66-11.06-33.64.46Z"/><path class="cls-18" d="M341.69,546.75l-63-.2,0-4.51,67.47.22h0A4.5,4.5,0,0,1,341.69,546.75Z"/><line class="cls-34" x1="311.37" y1="530.01" x2="318.7" y2="522.23"/><line class="cls-34" x1="316.71" y1="532.29" x2="324.04" y2="524.5"/><line class="cls-34" x1="321.83" y1="535.32" x2="330.08" y2="526.5"/><path class="cls-35" d="M276.16,523.92c3.6-60.67,2.63-116.75-2.09-128.11-4.85-7.06-42.63-22.34-80.39-24l17.67-38.58c49.52,2.49,84.93,21.07,97.31,42.31,5.23,9,9.77,27.05,7.32,88.91-1.28,32.4-2.86,57.78-2.86,57.78Z"/><path class="cls-36" d="M333.65,545.9l62.2.43a6.72,6.72,0,0,0,6.76-6.67h0a6.71,6.71,0,0,0-4.46-6.37l-30.7-10.95-33.64.59Z"/><path class="cls-18" d="M397.08,548.06l-64,0v-4.52l68.47,0h0A4.51,4.51,0,0,1,397.08,548.06Z"/><line class="cls-34" x1="366.7" y1="531.44" x2="373.99" y2="523.63"/><line class="cls-34" x1="372.05" y1="533.69" x2="379.35" y2="525.88"/><line class="cls-34" x1="377.17" y1="536.71" x2="385.39" y2="527.85"/><path class="cls-35" d="M331.41,523.92c3.61-60.67,2.63-116.75-2.09-128.11-4.85-7.06-42.63-22.34-80.39-24l17.67-38.58c49.53,2.49,84.93,21.07,97.31,42.31,5.23,9,9.77,27.05,7.32,88.91-1.28,32.4-2.86,57.78-2.86,57.78Z"/><path class="cls-35" d="M278.19,344.34a28.1,28.1,0,0,1-28.09,28.08H202.89a26.73,26.73,0,0,1-4.12-.32,27.24,27.24,0,0,1-9.64-3.3c-.53-.28-1-.6-1.53-.92a28.06,28.06,0,0,1-12.78-23.54l.87-15,101.68-.88Z"/><path class="cls-16" d="M310.61,264.34,335,260.45a3.28,3.28,0,0,0,2.71-3.74h0a3.29,3.29,0,0,0-3.75-2.72l-24.33,3.89a3.28,3.28,0,0,0-2.71,3.75h0A3.27,3.27,0,0,0,310.61,264.34Z"/><path class="cls-16" d="M318.36,270.92l19.54-3.12a3.28,3.28,0,0,0,2.71-3.75h0a3.28,3.28,0,0,0-3.75-2.71l-19.53,3.12a3.29,3.29,0,0,0-2.72,3.75h0A3.29,3.29,0,0,0,318.36,270.92Z"/><path class="cls-16" d="M313.85,279.45,337,275.76a3.28,3.28,0,0,0,2.71-3.75h0a3.27,3.27,0,0,0-3.74-2.71L312.81,273a3.28,3.28,0,0,0-2.71,3.75h0A3.27,3.27,0,0,0,313.85,279.45Z"/><path class="cls-16" d="M321.12,258.05c-.26,0-3.25,0-6.48-.06a35.15,35.15,0,0,0-16.12,3.61l-9.6,4.72s5.5,16.31,6.25,16.45c18.51,3.34,24.85-5.06,24.85-5.06Z"/><rect class="cls-6" x="298.58" y="257.99" width="8.21" height="26.69"/><path class="cls-35" d="M244.76,287.58a49.87,49.87,0,0,1-45.2-28.91l-.41-.87-25.34-77.39L205,170.18l24.7,75.42a17,17,0,0,0,15.2,9.12l53.84-.53.32,32.85-53.84.54Z"/><path class="cls-16" d="M420.43,255.67a20.37,20.37,0,0,0-8.72-8.35l-.09,0a35.2,35.2,0,0,0-16.13-3.56l-10.7.2s-2.71,23.2-2.57,22.45c.28-1.51,26.15-1.12,38-.87a3.32,3.32,0,0,0,3-4.94Z"/><rect class="cls-6" x="378.32" y="242.18" width="10.2" height="27.34"/><path class="cls-37" d="M328.38,272.64a49.88,49.88,0,0,1-45.2-28.9l-36.5-79L276.51,151,313,230a16.87,16.87,0,0,0,15.55,9.83l53.84-.53.33,32.85-53.84.53Z"/><path class="cls-37" d="M286.89,180.21l-.61,69L285.51,337s-1.89,2.12-7.53,5.08c-4.9,2.58-12.6,5.81-24.32,8.85-13.67,3.55-32.92,4.1-49.36,3.69-18.14-.44-32.86-2-32.86-2l.38-172.35a49.28,49.28,0,0,1,40.66-48.49A50.2,50.2,0,0,1,221,131h16.64A49.22,49.22,0,0,1,286.89,180.21Z"/><rect class="cls-21" x="210.12" y="406.5" width="16.61" height="95.37"/><path class="cls-20" d="M210.12,411.88v20.87l16.61-6.06V412.56C222.57,412.37,214.57,412.06,210.12,411.88Z"/><path class="cls-5" d="M269.54,414.74H170.06a9.3,9.3,0,0,1-9.27-9.27h0a9.3,9.3,0,0,1,9.27-9.27h99.48a9.3,9.3,0,0,1,9.27,9.27h0A9.3,9.3,0,0,1,269.54,414.74Z"/><path class="cls-5" d="M288.84,532.66H278.45c0-11.7-10.11-21.23-22.52-21.23H180.21c-12.42,0-22.52,9.53-22.52,21.23H147.3c0-17.11,14.76-31,32.91-31h75.72C274.07,501.64,288.84,515.55,288.84,532.66Z"/><rect class="cls-5" x="206.19" y="486.94" width="24.25" height="14.93"/><ellipse class="cls-18" cx="152.1" cy="542.13" rx="8.63" ry="8.14"/><path class="cls-3" d="M151.95,528.23h1.57a11,11,0,0,1,11,11v2.15a0,0,0,0,1,0,0H140.92a0,0,0,0,1,0,0v-2.15a11,11,0,0,1,11-11Z"/><ellipse class="cls-18" cx="284.13" cy="542.13" rx="8.63" ry="8.14"/><path class="cls-3" d="M284,528.23h1.57a11,11,0,0,1,11,11v2.15a0,0,0,0,1,0,0H273a0,0,0,0,1,0,0v-2.15A11,11,0,0,1,284,528.23Z"/><rect class="cls-5" x="211.93" y="504.67" width="13.76" height="29.39"/><ellipse class="cls-18" cx="219.09" cy="542.13" rx="8.63" ry="8.14"/><path class="cls-3" d="M218.95,528.23h1.57a11,11,0,0,1,11,11v2.15a0,0,0,0,1,0,0H207.92a0,0,0,0,1,0,0v-2.15A11,11,0,0,1,218.95,528.23Z"/><path class="cls-38" d="M86.14,227.05l22.25,160.61a20.24,20.24,0,0,0,19.41,17.45L209,406l-45.14-202-57.64,0A20.23,20.23,0,0,0,86.14,227.05Z"/><rect class="cls-39" x="174.51" y="371.04" width="147.87" height="34.99" rx="17.5"/><path class="cls-35" d="M198.41,175c-2.18,31.66,4,145.85,5.89,179.57-18.14-.44-32.86-2-32.86-2l.38-172.35a49.28,49.28,0,0,1,40.66-48.49S201,137.73,198.41,175Z"/><polygon class="cls-6" points="255 133.98 204.23 133.98 204.23 119.79 255 125.79 255 133.98"/><path class="cls-39" d="M173,383.94,149.46,219.22c-1.05-7.34,4.46-14.15,12.24-15.14h0c7.79-1,15,4.2,16.07,11.54l23.58,164.71c1.05,7.34-4.46,14.16-12.24,15.15h0C181.32,396.47,177.29,402,173,383.94Z"/><path class="cls-35" d="M286.28,249.17,285.51,337s-1.89,2.12-7.53,5.08l-11.7-132.33S277,236.51,286.28,249.17Z"/><path class="cls-40" d="M507,187.77l-5.81,32.47L497.11,243a17.51,17.51,0,0,1-7.45,1.65h-55c5.22-5.4,14-14.47,23.41-24.39,14.69-15.44,31-32.93,38.26-41.81Z"/><path class="cls-23" d="M476.77,271.73H585.63a9.61,9.61,0,0,0,1.37-2.91l24.36-87.93a6.57,6.57,0,0,0-6.34-8.33H509.24a6.59,6.59,0,0,0-6.33,4.81Z"/><path class="cls-7" d="M606.16,177.76,581.82,265.6a9.43,9.43,0,0,1-9.1,6.92H470.58l27.24-98.28a6.56,6.56,0,0,1,6.32-4.81h95.69A6.57,6.57,0,0,1,606.16,177.76Z"/><path class="cls-25" d="M600.78,181.62l-19.89,71.63-4.17,15H475.39l4.16-15,20.8-74.88a6.07,6.07,0,0,1,5.87-4.45h88.69A6.08,6.08,0,0,1,600.78,181.62Z"/><polygon class="cls-41" points="541.09 183.66 509.9 183.66 510.6 181.47 541.78 181.47 541.09 183.66"/><polygon class="cls-9" points="569.38 183.66 554.61 183.66 555.31 181.47 570.07 181.47 569.38 183.66"/><polygon class="cls-7" points="590.7 183.66 575.93 183.66 576.63 181.47 591.39 181.47 590.7 183.66"/><polygon class="cls-8" points="574.19 183.66 570.69 183.66 571.39 181.47 574.88 181.47 574.19 183.66"/><polygon class="cls-7" points="552.9 183.66 542.55 183.66 543.25 181.47 553.6 181.47 552.9 183.66"/><polygon class="cls-23" points="519.37 221.08 534.14 221.08 534.83 218.89 520.07 218.89 519.37 221.08"/><polygon class="cls-10" points="498.05 221.08 512.82 221.08 513.51 218.89 498.75 218.89 498.05 221.08"/><polygon class="cls-8" points="514.56 221.08 518.06 221.08 518.75 218.89 515.26 218.89 514.56 221.08"/><polygon class="cls-9" points="518.63 193.01 506.94 193.01 507.63 190.82 519.33 190.82 518.63 193.01"/><polygon class="cls-8" points="546.92 193.01 541.9 193.01 542.6 190.82 547.62 190.82 546.92 193.01"/><polygon class="cls-9" points="587.74 193.01 563.22 193.01 563.92 190.82 588.43 190.82 587.74 193.01"/><polygon class="cls-8" points="561.48 193.01 548.24 193.01 548.93 190.82 562.17 190.82 561.48 193.01"/><polygon class="cls-8" points="540.19 193.01 520.1 193.01 520.79 190.82 540.89 190.82 540.19 193.01"/><polygon class="cls-12" points="500.86 249.15 489.16 249.15 489.86 246.95 501.55 246.95 500.86 249.15"/><polygon class="cls-23" points="515.67 202.37 503.98 202.37 504.67 200.18 516.37 200.18 515.67 202.37"/><polygon class="cls-23" points="534.76 202.37 523.06 202.37 523.76 200.18 535.45 200.18 534.76 202.37"/><polygon class="cls-8" points="581.53 202.37 561.43 202.37 562.13 200.18 582.22 200.18 581.53 202.37"/><polygon class="cls-8" points="501.01 211.72 521.11 211.72 521.8 209.53 501.71 209.53 501.01 211.72"/><polygon class="cls-7" points="582.21 253.25 577.93 268.25 474.06 268.25 478.33 253.25 582.21 253.25"/><path class="cls-7" d="M526.27,272.75H401.84a5.3,5.3,0,0,1-5.28-5.28h0a5.3,5.3,0,0,1,5.28-5.29H526.27a5.3,5.3,0,0,1,5.29,5.29h0A5.3,5.3,0,0,1,526.27,272.75Z"/><polygon class="cls-42" points="575.2 169.43 573.15 173.92 536.93 253.25 533.19 261.43 494.06 261.43 497.8 253.25 534.02 173.92 536.07 169.43 575.2 169.43"/><polygon class="cls-42" points="460.11 95.27 406.28 213.13 348.72 213.13 402.55 95.27 460.11 95.27"/><path class="cls-23" d="M573.44,272.43h-72a5.3,5.3,0,0,1-5.29-5.29h0a5.3,5.3,0,0,1,5.29-5.29h72a5.3,5.3,0,0,1,5.29,5.29h0A5.3,5.3,0,0,1,573.44,272.43Z"/><rect class="cls-18" x="537.28" y="265.36" width="10.29" height="3.09"/><rect class="cls-18" x="526.74" y="265.36" width="7.46" height="3.09"/><path class="cls-43" d="M472.1,229.59v43.09h-36V229.59a3.44,3.44,0,0,1,3.44-3.44h29.11A3.44,3.44,0,0,1,472.1,229.59Z"/><path class="cls-9" d="M436.55,265.3c-.47-.27-11.52-6.74-12.5-18.07a10.38,10.38,0,0,1,2.7-8.49c3.95-4.08,10.52-3.85,11.26-3.81l-.29,5.26c-1.33-.06-5.26.21-7.2,2.23a5.24,5.24,0,0,0-1.22,4.35c.75,8.63,9.79,13.91,9.88,14Z"/><path class="cls-9" d="M455.28,272.68H436.11V229.59a3.44,3.44,0,0,1,3.44-3.44h1.16c.05,2.25.67,19.43,5.49,31.81C450.4,268.74,454.14,271.92,455.28,272.68Z"/><path class="cls-44" d="M424.05,247.22c.88,10.2,9.92,16.47,12.06,17.8v7.66h19.17c-1.14-.76-4.88-3.94-9.08-14.72-4.82-12.37-5.44-29.56-5.49-31.81h-1.16a3.45,3.45,0,0,0-3.44,3.44V235c-2.42.17-6.55.89-9.36,3.79A10.4,10.4,0,0,0,424.05,247.22Zm6.48-4.81c1.4-1.44,3.84-2,5.58-2.16v18.22c-2.72-2.31-6.34-6.37-6.81-11.71A5.27,5.27,0,0,1,430.53,242.41Z"/><rect class="cls-45" x="56.33" y="191.85" width="4.14" height="57.14" transform="translate(39.31 -6.8) rotate(10.04)"/><rect class="cls-45" x="59.02" y="190.75" width="6.42" height="17.18" transform="translate(35.69 -7.8) rotate(10.04)"/><polygon class="cls-46" points="48.66 256.1 44.53 255.75 49.31 198.81 51.8 195.17 53.44 199.16 48.66 256.1"/><polygon class="cls-47" points="42.93 259.01 38.86 259.8 27.94 203.71 29.35 199.53 32.01 202.92 42.93 259.01"/><polygon class="cls-48" points="52.06 272.05 34.37 272.05 28.57 225.21 57.86 225.21 52.06 272.05"/><polygon class="cls-49" points="58.73 272.05 41.04 272.05 38.43 225.21 64.54 225.21 58.73 272.05"/><path class="cls-39" d="M605,342.65v25.78h90a12.89,12.89,0,1,0,0-25.78Z"/><path class="cls-44" d="M625.17,359.87v8.56h69.88a12.91,12.91,0,0,0,12.15-8.56Z"/><path class="cls-38" d="M585.77,342.64v25.79h59a12.9,12.9,0,0,0,0-25.79Z"/><path class="cls-6" d="M585.77,347.06V363.6h55.55a8.27,8.27,0,1,0,0-16.54Z"/><path class="cls-50" d="M603.28,291.4v25.79h90a12.9,12.9,0,1,0,0-25.79Z"/><path class="cls-51" d="M623.69,300v-8.56h69.88A12.91,12.91,0,0,1,705.71,300Z"/><path class="cls-52" d="M585.77,291.4v25.79h59a12.9,12.9,0,1,0,0-25.79Z"/><path class="cls-6" d="M585.77,295.82v16.53h55.55a8.27,8.27,0,1,0,0-16.53Z"/><path class="cls-11" d="M598.63,317.34v25.79h90a12.9,12.9,0,0,0,11.38-19,13.08,13.08,0,0,0-2.27-3.06,12.83,12.83,0,0,0-9.11-3.77Z"/><path class="cls-53" d="M601,317.34v6.83h99a13.08,13.08,0,0,0-2.27-3.06,12.83,12.83,0,0,0-9.11-3.77Z"/><path class="cls-53" d="M601,343.14V336.3h99a12.88,12.88,0,0,1-11.38,6.84Z"/><path class="cls-54" d="M575.06,317.34v25.78h54a12.89,12.89,0,1,0,0-25.78Z"/><path class="cls-6" d="M575.06,321.76v16.53h50.56a8.27,8.27,0,1,0,0-16.53Z"/><path class="cls-18" d="M612.52,165.93h0a10.93,10.93,0,0,1,.83-15.84l.54-.47a11.94,11.94,0,0,1,16.43.81h0a10.92,10.92,0,0,1-.83,15.83l-.54.47A12,12,0,0,1,612.52,165.93Z"/><path class="cls-33" d="M621.66,188.22l-11.33,9.87-32.17-34.32,11.33-9.86a24.72,24.72,0,0,1,27.85-3,23.62,23.62,0,0,1,6,4.66,22.5,22.5,0,0,1-1.72,32.65Z"/><path class="cls-10" d="M611.43,177.31l-11.33,9.86-21.94-23.4,11.33-9.86a24.72,24.72,0,0,1,27.85-3,22.31,22.31,0,0,1,2,10.41A22.79,22.79,0,0,1,611.43,177.31Z"/><path class="cls-7" d="M610.92,198c-3.42,3.06-13.52-2-22.56-11.41s-13.61-19.43-10.19-22.49c2.69-2.42,9.58.27,16.82,6.12a66,66,0,0,1,5.73,5.29,61.14,61.14,0,0,1,5.77,6.87C611.53,189.32,613.5,195.64,610.92,198Z"/><path class="cls-6" d="M606.49,182.33a8.83,8.83,0,0,1-10.68,1.74,8.13,8.13,0,0,1-3.25-11.28,8.25,8.25,0,0,1,2.43-2.62,66,66,0,0,1,5.73,5.29A61.14,61.14,0,0,1,606.49,182.33Z"/><polyline class="cls-55" points="669.74 276.89 699.11 182.08 639.63 142.46 627.15 153.07"/><path class="cls-18" d="M646.16,143a7.32,7.32,0,1,1-7.31-7A7.18,7.18,0,0,1,646.16,143Z"/><path class="cls-12" d="M642.51,143a3.66,3.66,0,1,1-3.66-3.52A3.6,3.6,0,0,1,642.51,143Z"/><path class="cls-12" d="M699.31,291.71H623.64a15,15,0,0,1,15-15h45.6a15,15,0,0,1,15,15Z"/><rect class="cls-18" x="639.24" y="272.92" width="13.65" height="4.13"/><ellipse class="cls-18" cx="698.53" cy="183.05" rx="10.24" ry="9.87"/><ellipse class="cls-12" cx="698.53" cy="183.05" rx="5.12" ry="4.93"/><path class="cls-56" d="M764.23,297.31c-11.1,15.11-33.36,17.62-33.36,17.62s-4.27-22,6.82-37.11,33.37-17.62,33.37-17.62S775.33,282.2,764.23,297.31Z"/><path class="cls-57" d="M717.63,288.27c10.17,10,9.62,27.09,9.62,27.09s-17,.8-27.23-9.23-9.62-27.08-9.62-27.08S707.45,278.24,717.63,288.27Z"/><path class="cls-58" d="M742.84,280.69c2.07,18.63-12.62,35.55-12.62,35.55s-18-13.29-20.1-31.92,12.62-35.56,12.62-35.56S740.78,262.05,742.84,280.69Z"/><polygon class="cls-59" points="741.47 367.73 702.85 367.73 690.18 311.39 754.13 311.39 741.47 367.73"/><polygon class="cls-36" points="756.03 367.73 717.41 367.73 711.71 311.39 768.69 311.39 756.03 367.73"/></g></g></g></svg>