<svg xmlns="http://www.w3.org/2000/svg" viewBox="0 0 475.27 457.54"><defs><style>.cls-1{fill:#f5f5f5;}.cls-2{fill:#e6e6e6;}.cls-21,.cls-24,.cls-27,.cls-29,.cls-3,.cls-9{fill:#fff;}.cls-4{fill:#ebebeb;}.cls-5{fill:#e0e0e0;}.cls-6{opacity:0.15;}.cls-7{fill:#ba68c8;}.cls-22,.cls-8,.cls-9{opacity:0.2;}.cls-10,.cls-21{opacity:0.1;}.cls-11{fill:#f0f0f0;}.cls-12,.cls-15{fill:none;}.cls-13{isolation:isolate;}.cls-14{fill:#fafafa;}.cls-15{stroke:gray;stroke-linecap:round;stroke-linejoin:round;stroke-width:0;}.cls-16{fill:#cacaca;}.cls-17{fill:#787878;}.cls-18{fill:#cfcfcf;}.cls-19{fill:#37474f;}.cls-20{fill:#455a64;}.cls-23{fill:#ffa8a7;}.cls-24,.cls-26{opacity:0.3;}.cls-25{fill:#f28f8f;}.cls-27{opacity:0.6;}.cls-28{fill:#263238;}.cls-29{opacity:0.4;}.cls-30{fill:#1e272b;}.cls-31{fill:#1d262a;}.cls-32{opacity:0.5;}.cls-33{opacity:0.35;}</style></defs><g id="Layer_2" data-name="Layer 2"><g id="Floor"><path class="cls-1" d="M405.12,222.56c-93.11-53.75-243.56-53.75-336.06,0s-92,140.91,1.09,194.66,243.56,53.76,336.07,0S498.23,276.32,405.12,222.56Z"/></g><g id="Shadows"><path class="cls-2" d="M78.81,312l129.72-75.48a2.29,2.29,0,0,0,0-4L162.86,206a2.28,2.28,0,0,0-2.3,0L29.68,282.1a2.29,2.29,0,0,0,0,4L74.21,312A4.58,4.58,0,0,0,78.81,312Z"/><path class="cls-2" d="M82.67,329l81.88-47.29,65.35,37.64a43.08,43.08,0,0,1,11.66-9.5c23.31-13.45,61-13.45,84.14,0s23,35.29-.27,48.74a70.14,70.14,0,0,1-15.95,6.59l6.57,3.78a3,3,0,0,1,0,5.15L240.11,418a11.87,11.87,0,0,1-11.88,0L82.67,334.13A3,3,0,0,1,82.67,329Z"/><path class="cls-2" d="M415,366.82c-7.91-4.56-20.69-4.56-28.54,0s-7.82,12,.09,16.54,20.69,4.56,28.54,0S422.86,371.39,415,366.82Z"/></g><g id="Plant"><path class="cls-3" d="M419.87,340.55l-19.15.56-19.14-.56c-.83,12.93,1.7,26.11,5.18,32.54h0a8.82,8.82,0,0,0,3.79,3.86c5.65,3.26,14.78,3.26,20.39,0a8.47,8.47,0,0,0,3.79-4C418.2,366.52,420.69,353.42,419.87,340.55Z"/><path class="cls-4" d="M414.22,332.71c7.5,4.33,7.54,11.35.09,15.68s-19.58,4.33-27.08,0-7.54-11.35-.09-15.68S406.72,328.38,414.22,332.71Z"/><path class="cls-5" d="M411.25,334.43c5.86,3.38,5.89,8.86.07,12.24s-15.27,3.38-21.12,0-5.89-8.86-.07-12.24S405.4,331.05,411.25,334.43Z"/><g class="cls-6"><path d="M411.25,334.43c5.86,3.38,5.89,8.86.07,12.24s-15.27,3.38-21.12,0-5.89-8.86-.07-12.24S405.4,331.05,411.25,334.43Z"/></g><path class="cls-7" d="M432.2,258.85c-43.14,14.13-43.53,43-33.81,63.55,2.46,4.16,9.88,6.39,16.34-19.17l-11.33,1.45L416.61,298,420,287.73l-11,.82,14-5.88A206.59,206.59,0,0,1,432.2,258.85Z"/><path class="cls-8" d="M432.2,258.85c-43.14,14.13-43.53,43-33.81,63.55,2.46,4.16,9.88,6.39,16.34-19.17l-11.33,1.45L416.61,298,420,287.73l-11,.82,14-5.88A206.59,206.59,0,0,1,432.2,258.85Z"/><path class="cls-9" d="M432.2,258.85c-43.14,14.13-43.53,43-33.81,63.55,2.46,4.16,9.88,6.39,16.34-19.17l-11.33,1.45L416.61,298,420,287.73l-11,.82,14-5.88A206.59,206.59,0,0,1,432.2,258.85Z"/><path class="cls-3" d="M420,266.07c-22.75,17.27-24.81,37.07-18.38,57.74C399.35,305.6,396.89,287.2,420,266.07Z"/><path class="cls-7" d="M359.12,288.17c42.53,6,47.69,32.81,42.05,53.57-1.59,4.28-8.14,7.59-18.4-15.14l10.79-.53-13.41-4-4.9-9,10.4-1.07-14-3.15A194.92,194.92,0,0,0,359.12,288.17Z"/><path class="cls-9" d="M359.12,288.17c42.53,6,47.69,32.81,42.05,53.57-1.59,4.28-8.14,7.59-18.4-15.14l10.79-.53-13.41-4-4.9-9,10.4-1.07-14-3.15A194.92,194.92,0,0,0,359.12,288.17Z"/><path class="cls-10" d="M359.12,288.17c42.53,6,47.69,32.81,42.05,53.57-1.59,4.28-8.14,7.59-18.4-15.14l10.79-.53-13.41-4-4.9-9,10.4-1.07-14-3.15A194.92,194.92,0,0,0,359.12,288.17Z"/><path class="cls-3" d="M371.69,292.87c24.06,12.3,29.26,30.4,26.71,50.71C397.49,326.26,396.72,308.71,371.69,292.87Z"/><path class="cls-7" d="M444.65,298.22c-39,.64-46.65,24.23-43.89,43.57,1,4,6.48,7.76,18.28-11.58l-9.67-1.69,12.54-2.14,5.42-7.54-9.25-2.13,13-1.27A177.45,177.45,0,0,1,444.65,298.22Z"/><path class="cls-3" d="M432.8,301.05c-23.06,8.39-29.78,24.12-29.75,42.72C405.81,328.25,408.46,312.52,432.8,301.05Z"/><path class="cls-9" d="M444.65,298.22c-39,.64-46.65,24.23-43.89,43.57,1,4,6.48,7.76,18.28-11.58l-9.67-1.69,12.54-2.14,5.42-7.54-9.25-2.13,13-1.27A177.45,177.45,0,0,1,444.65,298.22Z"/></g><g id="Windows"><polygon class="cls-11" points="329.12 3.62 322.78 0 322.38 138.52 322.4 138.53 373.48 167.7 373.5 160.44 373.88 29.18 329.12 3.62"/><polygon class="cls-10" points="328.74 134.89 329.12 3.62 322.78 0 322.38 138.52 322.4 138.53 328.76 134.9 328.74 134.89"/><polygon class="cls-8" points="373.5 160.44 328.76 134.9 322.4 138.53 373.48 167.7 373.5 160.44"/><polygon class="cls-11" points="399.02 43.53 392.68 39.91 392.28 178.43 392.3 178.44 443.38 207.61 443.4 200.35 443.78 69.09 399.02 43.53"/><polygon class="cls-10" points="398.64 174.8 399.02 43.53 392.68 39.91 392.28 178.43 392.3 178.44 398.66 174.81 398.64 174.8"/><polygon class="cls-8" points="443.4 200.35 398.66 174.81 392.3 178.44 443.38 207.61 443.4 200.35"/></g><g id="Pictures"><polygon class="cls-12" points="77.21 66.3 45.3 84.72 45.37 109.11 77.28 90.68 77.21 66.3"/><polygon class="cls-11" points="77.21 66.3 77.28 90.68 80.24 92.4 80.16 64.59 77.21 66.3"/><polygon class="cls-1" points="45.37 109.11 45.38 112.53 80.24 92.4 77.28 90.68 45.37 109.11"/><path class="cls-5" d="M83.72,58.43l-42,24.25.1,36,42-24.25ZM45.38,112.52v-3.41L45.3,84.72,77.21,66.3l3-1.71.08,27.81Z"/><polygon class="cls-1" points="83.72 58.43 80.76 56.72 38.76 80.97 41.72 82.68 83.72 58.43"/><polygon class="cls-11" points="38.76 80.97 38.86 116.97 41.82 118.69 41.72 82.68 38.76 80.97"/><g class="cls-13"><polygon class="cls-5" points="67.07 75.56 75.78 82.41 75.79 89.1 46.85 105.81 46.83 99.12 52.35 88.16 57.3 92.01 55.55 97.45 58.09 92.62 67.07 75.56"/><path class="cls-5" d="M57.57,78.93c1.36-.79,2.47-.16,2.47,1.41a5.45,5.45,0,0,1-2.46,4.26c-1.36.78-2.47.15-2.47-1.41A5.39,5.39,0,0,1,57.57,78.93Z"/></g><polygon class="cls-12" points="77.19 121.03 45.28 139.45 45.35 163.84 77.26 145.42 77.19 121.03"/><polygon class="cls-11" points="77.19 121.03 77.26 145.42 80.21 147.13 80.14 119.33 77.19 121.03"/><polygon class="cls-1" points="45.35 163.84 45.36 167.26 80.21 147.13 77.26 145.42 45.35 163.84"/><path class="cls-5" d="M83.7,113.17l-42,24.25.1,36,42-24.24ZM45.36,167.26v-3.42l-.07-24.39L77.19,121l3-1.7.07,27.8Z"/><polygon class="cls-1" points="83.69 113.17 80.74 111.45 38.74 135.7 41.7 137.41 83.69 113.17"/><polygon class="cls-11" points="38.74 135.7 38.84 171.71 41.8 173.42 41.7 137.41 38.74 135.7"/><g class="cls-13"><polygon class="cls-5" points="67.05 130.29 75.75 137.14 75.77 143.83 46.83 160.54 46.81 153.85 52.33 142.9 57.28 146.74 55.53 152.18 58.07 147.35 67.05 130.29"/><path class="cls-5" d="M57.54,133.66c1.37-.78,2.47-.15,2.48,1.41a5.44,5.44,0,0,1-2.46,4.26c-1.36.79-2.47.16-2.48-1.41A5.45,5.45,0,0,1,57.54,133.66Z"/></g><path class="cls-12" d="M126.51,81.34h0c.38-.18.76-.36,1.14-.56h0C127.28,81,126.89,81.15,126.51,81.34Z"/><path class="cls-12" d="M126.1,81.54h0l.42-.21h0Z"/><polygon class="cls-12" points="139.53 33.82 130.8 38.86 121.94 43.98 130.81 38.86 139.53 33.82"/><polygon class="cls-12" points="139.61 62.58 139.59 54.49 139.57 47.09 139.59 54.49 139.61 62.58"/><path class="cls-12" d="M127.66,80.77l.24-.11-.24.11Z"/><polygon class="cls-12" points="139.71 98.07 139.69 91.3 139.68 85.38 139.69 91.3 139.71 98.07"/><path class="cls-12" d="M122.71,82.93c1.12-.4,2.25-.87,3.39-1.39h0C125,82.06,123.83,82.53,122.71,82.93Z"/><polygon class="cls-12" points="113.62 58.8 113.69 84.81 113.73 99.88 113.69 84.81 113.62 58.8"/><path class="cls-4" d="M139.69,91.3V85.38l-.27.15-.5.3c-4.37,2.64-8.76,6.79-12.85,11.28q-1,1.11-2,2.25c-3.45,4-6.82,8.12-10.28,12l0,9.57,4.18-2.41A91.9,91.9,0,0,1,139.69,91.3Z"/><path class="cls-4" d="M139.74,106l0-7.92a49.84,49.84,0,0,0-8.87,13.06Z"/><path class="cls-14" d="M130.84,111.13a49.84,49.84,0,0,1,8.87-13.06l0-6.77A91.9,91.9,0,0,0,118,118.56l12.87-7.43Z"/><path class="cls-15" d="M126.1,81.54h0"/><path class="cls-15" d="M126.51,81.34h0"/><path class="cls-14" d="M122.11,83.14l.6-.21c1.12-.4,2.25-.87,3.39-1.39l.41-.2c.38-.19.77-.37,1.15-.57.66-.33,1.32-.68,2-1.06-.66.38-1.32.73-2,1.06l.24-.11c.58-.3,1.16-.62,1.74-1l.38-.21.3-.18a62.39,62.39,0,0,0,8.93-6.4l.39-.33,0-10c-6.35,3.25-12.6,4.26-17.64,2.69a15.42,15.42,0,0,1-8.35-6.47l.07,26A31.09,31.09,0,0,0,122.11,83.14Z"/><path class="cls-14" d="M126.06,97.11c4.09-4.49,8.48-8.64,12.85-11.28l.5-.3.27-.15,0-5.74a124.55,124.55,0,0,0-23.39,17.81c-.85.81-1.69,1.64-2.54,2.43l0,11.52c3.46-3.92,6.83-8.09,10.28-12Q125,98.22,126.06,97.11Z"/><path class="cls-4" d="M139.66,79.64l0-7-.39.33a62.39,62.39,0,0,1-8.93,6.4l-.3.18-.38.21c-.58.33-1.16.65-1.74,1l-.24.11-.16.09h0l.16-.09c-.38.2-.76.38-1.14.56l-.42.21c-1.14.52-2.27,1-3.39,1.39l.64-.24-.64.24-.6.21a31.09,31.09,0,0,1-8.42,1.67l0,15.07c.85-.79,1.69-1.62,2.54-2.43A124.55,124.55,0,0,1,139.66,79.64Z"/><path class="cls-14" d="M139.59,54.49l0-7.4c-4-.94-7.13-3.86-8.77-8.23L121.94,44A18.31,18.31,0,0,0,139.59,54.49Z"/><path class="cls-4" d="M122,65.27c5,1.57,11.29.56,17.64-2.69l0-8.09A18.31,18.31,0,0,1,121.94,44l-8.35,4.82,0,10A15.42,15.42,0,0,0,122,65.27Z"/><path class="cls-3" d="M141,31.3,112.12,48l.21,75.52,28.87-16.67ZM113.79,121l0-9.57,0-11.52,0-15.07-.07-26,0-10L121.94,44l8.86-5.12,8.73-5,0,13.27,0,7.4,0,8.09,0,10,0,7,0,5.74V91.3l0,6.77,0,7.92-8.9,5.14h0L118,118.56Z"/><path class="cls-15" d="M127.48,80.87h0"/><path class="cls-15" d="M127.5,80.86l.16-.09"/><path class="cls-15" d="M129.64,79.71c-.66.38-1.32.73-2,1.06"/><line class="cls-15" x1="127.66" y1="80.77" x2="127.66" y2="80.77"/><path class="cls-15" d="M122.71,82.93l.64-.24"/><path class="cls-4" d="M139.57,47.09l0-13.27-8.73,5C132.44,43.23,135.56,46.15,139.57,47.09Z"/><polygon class="cls-16" points="141.2 106.82 112.33 123.49 112.34 125.49 142.94 107.83 141.2 106.82"/><polygon class="cls-11" points="140.99 31.3 141.2 106.82 142.94 107.83 142.72 30.3 140.99 31.3"/><path class="cls-5" d="M147.36,22.26,107.45,45.31l.25,88.22,39.91-23Zm-35,103.23v-2L112.12,48,141,31.3l1.73-1,.22,77.53Z"/><polygon class="cls-1" points="147.36 22.26 144.06 20.49 104.15 43.54 107.44 45.3 147.36 22.26"/><polygon class="cls-11" points="104.15 43.54 104.4 131.76 107.69 133.53 107.44 45.3 104.15 43.54"/></g><g id="Side_table" data-name="Side table"><polygon class="cls-2" points="187.73 238.7 192.26 241.34 192.25 236.09 187.73 238.7"/><polygon class="cls-17" points="192.14 210.72 192.14 210.66 192.14 210.66 192.14 210.66 192.14 210.72"/><rect class="cls-18" x="136.87" y="178.74" height="127.6"/><polygon class="cls-18" points="192.07 185.21 81.54 248.96 81.54 248.96 192.07 185.21"/><path class="cls-4" d="M192.25,236.09v5.25l4.72-2.73L196.81,177l-120,69.25.17,61.63,4.72-2.73V299.9l106.09-61.2ZM81.54,249h0l110.53-63.75.05,20L81.59,269Zm.07,25.46h0l110.53-63.76h0v.06l.05,19.93L81.67,294.4Z"/><polygon class="cls-1" points="192.19 230.65 192.14 210.72 192.14 210.66 81.61 274.42 81.61 274.42 81.67 294.4 192.19 230.65"/><polygon class="cls-1" points="192.12 205.19 192.07 185.21 81.54 248.96 81.54 248.96 81.59 268.95 192.12 205.19"/><polygon class="cls-1" points="76.76 246.24 29.93 219.03 30.11 280.66 76.93 307.87 76.76 246.24"/><polygon class="cls-14" points="76.76 246.24 196.81 176.99 149.99 149.78 29.93 219.03 76.76 246.24"/></g><g id="Character"><path class="cls-5" d="M261.28,339.19h0l2.7,1.72,0,0h0a3.06,3.06,0,0,0,3-.31,9.5,9.5,0,0,0,4.3-7.46,3,3,0,0,0-1.21-2.73h0l0,0,0,0-.79-.5,25.85-10.51a1.88,1.88,0,0,0,1,1.51l-2.33,20.33V344a9.56,9.56,0,0,0-3.56,6.93,3,3,0,0,0,1.34,2.81h0l2.7,1.72.05,0h0a3.09,3.09,0,0,0,3-.32,9.49,9.49,0,0,0,4.3-7.45,3.05,3.05,0,0,0-1.21-2.74h0l0,0,0,0-2.73-1.74h0a2.27,2.27,0,0,0-1.43-.31l3-21.19h0a6.49,6.49,0,0,0,1.88-.3h0l24.49,13.23-1.41.89,0,0,0,0h0a3,3,0,0,0-1.21,2.73,9.5,9.5,0,0,0,4.3,7.46,3.06,3.06,0,0,0,3,.31h0l.06,0,2.7-1.72h0a2.93,2.93,0,0,0,1.35-2.8,9.6,9.6,0,0,0-3.51-6.9v-4.27L308,316.81l12-3a8.82,8.82,0,0,0-1.28,4.28,2.94,2.94,0,0,0,1.35,2.8h0l2.7,1.72.06,0h0a3.06,3.06,0,0,0,3-.31,9.54,9.54,0,0,0,4.31-7.46,3,3,0,0,0-1.22-2.73h0l0,0,0,0-2.73-1.73h0a2.49,2.49,0,0,0-2-.19v-.69l-1.47-.5-19.53,1v-3.45a5.88,5.88,0,0,0,.62-.29,3.28,3.28,0,0,0,1.93-2.68V281h-13.1v22.58a3.23,3.23,0,0,0,1.9,2.68,6.49,6.49,0,0,0,.65.31v2.9l-14.12-3-.68.27v2.59l0,0h0L277.6,311l0,0,0,0h0a3,3,0,0,0-1.21,2.73,9.3,9.3,0,0,0,2.12,5.5l-13.63,6.14v3.23a5,5,0,0,0-.57.28,9.47,9.47,0,0,0-4.3,7.45A2.94,2.94,0,0,0,261.28,339.19Zm8.13-14.57,9.88-4.4h0l-13.35,5.95Zm17.47-11.11,2,1.08-1.38.62A8.71,8.71,0,0,0,286.88,313.51Zm8.28-.36-7.44,3.31h0Z"/><path class="cls-19" d="M326.84,315.82l2.16-3.7-2.8-1.78h0a3,3,0,0,0-3.12.27,9.47,9.47,0,0,0-4.3,7.45,2.94,2.94,0,0,0,1.35,2.8h0l2.76,1.75,2.28-3.9A10.4,10.4,0,0,0,326.84,315.82Z"/><path class="cls-20" d="M325.88,312.39c2.39-1.38,4.33-.28,4.34,2.46a9.54,9.54,0,0,1-4.31,7.46c-2.38,1.37-4.32.27-4.33-2.47A9.47,9.47,0,0,1,325.88,312.39Z"/><path class="cls-19" d="M279.69,314.77l-2.16-3.71,2.8-1.78h0a3,3,0,0,1,3.12.26,9.47,9.47,0,0,1,4.3,7.45,2.93,2.93,0,0,1-1.35,2.8h0l-2.76,1.76-2.28-3.91A10.35,10.35,0,0,1,279.69,314.77Z"/><path class="cls-20" d="M280.65,311.33c-2.39-1.38-4.33-.27-4.33,2.46a9.49,9.49,0,0,0,4.3,7.46c2.38,1.37,4.32.27,4.33-2.47A9.49,9.49,0,0,0,280.65,311.33Z"/><path class="cls-4" d="M295.16,305.59h8v13.8h0A2,2,0,0,1,302,321a6.21,6.21,0,0,1-5.66,0,2,2,0,0,1-1.16-1.64h0Z"/><polygon class="cls-5" points="324.16 309.46 324.16 312.75 303.16 318.04 303.16 311.07 324.16 309.46"/><polygon class="cls-1" points="324.16 309.46 322.69 308.96 303.16 309.99 303.16 311.07 324.16 309.46"/><path class="cls-19" d="M326.26,339.29l-2.16-3.71,2.8-1.78h0a3,3,0,0,1,3.12.26,9.47,9.47,0,0,1,4.3,7.45,2.93,2.93,0,0,1-1.35,2.8h0l-2.76,1.76L328,342.18A10.35,10.35,0,0,1,326.26,339.29Z"/><path class="cls-20" d="M327.22,335.85c-2.39-1.38-4.33-.28-4.34,2.46a9.54,9.54,0,0,0,4.31,7.46c2.38,1.37,4.32.27,4.33-2.47A9.47,9.47,0,0,0,327.22,335.85Z"/><path class="cls-19" d="M298.31,348.69l2.16-3.71-2.8-1.78h0a3,3,0,0,0-3.12.26,9.49,9.49,0,0,0-4.3,7.45,3,3,0,0,0,1.34,2.81h0l2.76,1.76,2.28-3.9A10.54,10.54,0,0,0,298.31,348.69Z"/><path class="cls-20" d="M297.35,345.25c2.38-1.37,4.33-.27,4.33,2.47a9.49,9.49,0,0,1-4.3,7.45c-2.38,1.38-4.32.27-4.33-2.47A9.49,9.49,0,0,1,297.35,345.25Z"/><path class="cls-19" d="M268,334.16l2.16-3.71-2.8-1.78h0a3,3,0,0,0-3.12.26,9.47,9.47,0,0,0-4.3,7.45,2.94,2.94,0,0,0,1.34,2.8h0L264,341l2.28-3.91A10.35,10.35,0,0,0,268,334.16Z"/><path class="cls-20" d="M267.05,330.72c2.38-1.38,4.33-.28,4.33,2.46a9.5,9.5,0,0,1-4.3,7.46c-2.38,1.37-4.32.27-4.33-2.47A9.47,9.47,0,0,1,267.05,330.72Z"/><polygon class="cls-5" points="329.2 331.27 329.2 336.6 301.09 321.41 301.09 314.06 329.2 331.27"/><polygon class="cls-1" points="330.82 330.35 302.71 313.65 301.09 314.06 329.2 331.27 330.82 330.35"/><polygon class="cls-11" points="330.82 335.68 329.2 336.6 329.2 331.27 330.82 330.35 330.82 335.68"/><polygon class="cls-5" points="299.21 314.06 295.78 341.23 295.78 346.09 299.21 321.71 299.21 314.06"/><rect class="cls-11" x="293.8" y="341.23" width="1.98" height="4.86"/><polygon class="cls-1" points="293.8 341.23 296.91 314.06 299.21 314.06 295.78 341.23 293.8 341.23"/><polygon class="cls-5" points="265.94 326.17 265.94 331.27 295.16 319.39 295.16 313.15 265.94 326.17"/><polygon class="cls-11" points="264.81 330.51 265.94 331.27 265.94 326.17 264.81 325.43 264.81 330.51"/><polygon class="cls-1" points="269.41 324.62 265.94 326.17 264.81 325.43 295.16 311.76 295.16 313.15 269.41 324.62"/><polygon class="cls-5" points="280.36 306.68 280.36 310.02 288.88 314.59 295.16 311.76 295.16 310.39 280.36 306.68"/><polygon class="cls-1" points="280.36 306.68 281.04 306.41 295.16 309.46 295.16 310.39 280.36 306.68"/><path class="cls-5" d="M292.61,281h13.1v22.58h0a3.28,3.28,0,0,1-1.93,2.68,10.23,10.23,0,0,1-9.27,0,3.23,3.23,0,0,1-1.9-2.68h0Z"/><path class="cls-19" d="M241,244.68a7.4,7.4,0,0,1,2.49-2.4l4.91-2.52c0-17.47-2.58-15.75-7.4-22.61s2.57-11.11,8.12-8.07h0s31.06,9.14,39.29,1.07c10.22-10,5.93-35.32,4.72-45.22s0-16.75,2.74-19.64,6.7-7.15,19.56-1.83c0,0,34.66,15,51.64,23.41a22.68,22.68,0,0,1,10.69,5.43,7.07,7.07,0,0,1,2,2.58,3.08,3.08,0,0,1-.39,3.09,3,3,0,0,1-2,.91L355.87,258A19,19,0,0,1,346.14,270l-37.41,19a12.49,12.49,0,0,1-11.5-.11l-53.41-28.37C238.5,257.39,238,249.24,241,244.68Z"/><path class="cls-19" d="M241,244.68a8.45,8.45,0,0,0,2.83,2.68l53.41,28.37a12.52,12.52,0,0,0,11.5.11l37.41-18.95a19,19,0,0,0,9.73-11.95l18.05-66.68.9.28a7.6,7.6,0,0,0,2.36.36l.11,0L355.87,258A19,19,0,0,1,346.14,270l-37.41,19a12.49,12.49,0,0,1-11.5-.11l-53.41-28.37C238.5,257.39,238,249.24,241,244.68Z"/><path class="cls-20" d="M243.48,242.28l38.7-19.86,50.95,26.22c-1.66.4-3.34.73-5,1.07-4.38.88-8.85,1.85-12.65,4.19s-6.89,6.35-6.91,10.82l1.36,10.52h0l-1.19.6a12.52,12.52,0,0,1-11.5-.11l-53.41-28.37a8.45,8.45,0,0,1-2.83-2.68A7.4,7.4,0,0,1,243.48,242.28Z"/><path class="cls-10" d="M243.48,242.28l38.7-19.86,50.95,26.22c-1.66.4-3.34.73-5,1.07-4.38.88-8.85,1.85-12.65,4.19s-6.89,6.35-6.91,10.82l1.36,10.52h0l-1.19.6a12.52,12.52,0,0,1-11.5-.11l-53.41-28.37a8.45,8.45,0,0,1-2.83-2.68A7.4,7.4,0,0,1,243.48,242.28Z"/><path class="cls-20" d="M249.11,209.08s31.06,9.14,39.29,1.07c10.22-10,5.93-35.32,4.72-45.22s0-16.75,2.74-19.64,6.7-7.15,19.56-1.83c-13,6.7-14.69,38.54-10.58,51.32-10.2,10.5-9.5,26.77-9.7,34.31,0,0-26.54,6.49-40.39,14.1Z"/><path class="cls-21" d="M249.11,209.08s31.06,9.14,39.29,1.07c10.22-10,5.93-35.32,4.72-45.22s0-16.75,2.74-19.64,6.7-7.15,19.56-1.83c-13,6.7-14.69,38.54-10.58,51.32-10.2,10.5-9.5,26.77-9.7,34.31,0,0-26.54,6.49-40.39,14.1Z"/><path class="cls-20" d="M254.75,243.19l-6.36-3.43c0-17.47-2.58-15.75-7.4-22.61s2.57-11.11,8.12-8.07S256.91,221.29,254.75,243.19Z"/><path class="cls-9" d="M254.75,243.19l-6.36-3.43c0-17.47-2.58-15.75-7.4-22.61s2.57-11.11,8.12-8.07S256.91,221.29,254.75,243.19Z"/><path class="cls-20" d="M315.42,143.46s34.79,15.08,51.73,23.45l-1.23,6.18-55.5-25.2A14.83,14.83,0,0,1,315.42,143.46Z"/><path class="cls-21" d="M315.42,143.46s34.79,15.08,51.73,23.45l-1.23,6.18-55.5-25.2A14.83,14.83,0,0,1,315.42,143.46Z"/><path class="cls-20" d="M304.84,194.78c-3.51-10.91-2.8-35.7,5.58-46.89l55.5,25.2-12.69,63.57-20.1,12-38-19.55C295.34,221.55,294.64,205.28,304.84,194.78Z"/><path class="cls-20" d="M339.18,207.53c-.94-.55-1.7-.11-1.71,1a3.75,3.75,0,0,0,1.7,2.94c.94.55,1.71.11,1.71-1A3.72,3.72,0,0,0,339.18,207.53Z"/><path class="cls-20" d="M330.6,202.48c-1-.54-1.71-.11-1.71,1a3.72,3.72,0,0,0,1.69,3c.95.54,1.71.11,1.72-1A3.75,3.75,0,0,0,330.6,202.48Z"/><path class="cls-20" d="M322,197.44c-.94-.55-1.71-.11-1.71,1a3.72,3.72,0,0,0,1.7,2.94c.94.55,1.7.11,1.71-1A3.75,3.75,0,0,0,322,197.44Z"/><path class="cls-20" d="M313.42,192.39c-.94-.54-1.71-.11-1.71,1a3.78,3.78,0,0,0,1.7,2.95c.94.54,1.71.1,1.71-1A3.75,3.75,0,0,0,313.42,192.39Z"/><g class="cls-22"><path class="cls-3" d="M339.18,207.53c-.94-.55-1.7-.11-1.71,1a3.75,3.75,0,0,0,1.7,2.94c.94.55,1.71.11,1.71-1A3.72,3.72,0,0,0,339.18,207.53Z"/><path class="cls-3" d="M330.6,202.48c-1-.54-1.71-.11-1.71,1a3.72,3.72,0,0,0,1.69,3c.95.54,1.71.11,1.72-1A3.75,3.75,0,0,0,330.6,202.48Z"/><path class="cls-3" d="M322,197.44c-.94-.55-1.71-.11-1.71,1a3.72,3.72,0,0,0,1.7,2.94c.94.55,1.7.11,1.71-1A3.75,3.75,0,0,0,322,197.44Z"/><path class="cls-3" d="M313.42,192.39c-.94-.54-1.71-.11-1.71,1a3.78,3.78,0,0,0,1.7,2.95c.94.54,1.71.1,1.71-1A3.75,3.75,0,0,0,313.42,192.39Z"/></g><path class="cls-19" d="M315.47,253.9c3.8-2.34,8.27-3.31,12.65-4.19,1.67-.34,3.35-.67,5-1.07a30.7,30.7,0,0,0,7.76-2.83c6.14-3.39,10.26-9.73,12.23-16.45s2-13.87,1.61-20.87-1.29-14-1.08-21c.13-4.08.75-8.44,3.5-11.45s7.44-4.06,11.6-3.49a23.12,23.12,0,0,1,4,.94l1.84,2.16-.7,2.61-18.05,66.68a18.92,18.92,0,0,1-8.3,11.13c-.46.29-.94.57-1.43.82l-36.22,18.35-1.36-10.52C308.58,260.25,311.66,256.24,315.47,253.9Z"/><path class="cls-20" d="M315.42,246.74c13.25-3.78,26.26-4.27,31.06-13.79s5.14-22.65,2.74-45.49a35,35,0,0,1,.21-8.83c1.41-8.55,6.56-12.2,12.47-12.29a23,23,0,0,1,15.85,6,7.07,7.07,0,0,1,2,2.58,3.08,3.08,0,0,1-.39,3.09,3,3,0,0,1-2,.91l-.11,0a7.6,7.6,0,0,1-2.36-.36l-.9-.28c-1.62-.51-3.22-1.12-4.87-1.52a10.6,10.6,0,0,0-6,0,6.33,6.33,0,0,0-3.83,4.27c-5.59,18.25,1.49,37.86-4.79,52.93-5.14,13.7-22.9,19.39-35.43,23.45h0a7.55,7.55,0,0,0,3.13-2.27,5.27,5.27,0,0,0-.49-6.35A6.89,6.89,0,0,0,315.42,246.74Z"/><path class="cls-21" d="M315.42,246.74c13.25-3.78,26.26-4.27,31.06-13.79s5.14-22.65,2.74-45.49a35,35,0,0,1,.21-8.83c1.41-8.55,6.56-12.2,12.47-12.29a23,23,0,0,1,15.85,6,7.07,7.07,0,0,1,2,2.58,3.08,3.08,0,0,1-.39,3.09,3,3,0,0,1-2,.91l-.11,0a7.6,7.6,0,0,1-2.36-.36l-.9-.28c-1.62-.51-3.22-1.12-4.87-1.52a10.6,10.6,0,0,0-6,0,6.33,6.33,0,0,0-3.83,4.27c-5.59,18.25,1.49,37.86-4.79,52.93-5.14,13.7-22.9,19.39-35.43,23.45h0a7.55,7.55,0,0,0,3.13-2.27,5.27,5.27,0,0,0-.49-6.35A6.89,6.89,0,0,0,315.42,246.74Z"/><path class="cls-20" d="M306.23,256.11a19.58,19.58,0,0,1,3.39-5.94,10.09,10.09,0,0,1,5.8-3.43,6.89,6.89,0,0,1,6.26,2,5.27,5.27,0,0,1,.49,6.35,7.55,7.55,0,0,1-3.13,2.27,29.14,29.14,0,0,0-2.91,1.44,12.37,12.37,0,0,0-5,7.07,36.88,36.88,0,0,0-1.15,8.77l-.05.57-6.2-3.45A38,38,0,0,1,306.23,256.11Z"/><path class="cls-9" d="M306.23,256.11a19.58,19.58,0,0,1,3.39-5.94,10.09,10.09,0,0,1,5.8-3.43,6.89,6.89,0,0,1,6.26,2,5.27,5.27,0,0,1,.49,6.35,7.55,7.55,0,0,1-3.13,2.27,29.14,29.14,0,0,0-2.91,1.44,12.37,12.37,0,0,0-5,7.07,36.88,36.88,0,0,0-1.15,8.77l-.05.57-6.2-3.45A38,38,0,0,1,306.23,256.11Z"/><path class="cls-23" d="M347.08,126.3v2.6c4.05.8,8,1.68,12.16-.39L359,124v-5.68l-4.26-.45Z"/><path class="cls-8" d="M347.08,126.3c4.62,1.9,7.89-2.39,7.89-2.39a2.5,2.5,0,0,0,3.47-.16l.8,4.76v-11.8l-5.45.24-7.34,7.25Z"/><path class="cls-23" d="M355.45,113.48l7.41.38a2.21,2.21,0,0,1,2,1.66h0a32.54,32.54,0,0,1,1,7.92v4a2.67,2.67,0,0,1-.78,1.88h0A2.64,2.64,0,0,1,363,130l-2.37-.24a1.48,1.48,0,0,1-1.34-1.41L359,124V116.3a2.18,2.18,0,0,0-1.43-2Z"/><path class="cls-23" d="M345,119.45l6.42-5.64a3.22,3.22,0,0,1,3.23-.61l2.91,1.06a2.18,2.18,0,0,1,1.43,2v5.43a2,2,0,0,1-2.25,2h0a2,2,0,0,1-1.84-1.94l-.17-4a7.73,7.73,0,0,1-7.68,8.44Z"/><path class="cls-8" d="M359.77,128.06l.22-11.88a1.93,1.93,0,0,0-1.45-1.91l-3.09-.79,2.14.78a2.18,2.18,0,0,1,1.43,2V124l.22,4.4a1.48,1.48,0,0,0,1.34,1.41l.6.06-.51-.26A1.73,1.73,0,0,1,359.77,128.06Z"/><path class="cls-23" d="M345,119.45h0a13.75,13.75,0,0,0-5.31,4.61L316,159.1l-25.12,12.11,13.7,17.58L326.24,172a23.7,23.7,0,0,0,6.95-8.74l15.67-34Z"/><path class="cls-7" d="M348.07,132.58a9.23,9.23,0,0,0-9.42-8.48l-23.38,34.46-24.4,12.65,13.7,17.58,24.27-17.31a18.36,18.36,0,0,0,6.29-7.89Z"/><path class="cls-24" d="M348.07,132.58a9.23,9.23,0,0,0-9.42-8.48l-23.38,34.46-24.4,12.65,13.7,17.58,24.27-17.31a18.36,18.36,0,0,0,6.29-7.89Z"/><path class="cls-24" d="M345.05,126.47a9.31,9.31,0,0,0-6.4-2.37l-3.9,5.75a9.58,9.58,0,0,1,10.48,9.55l2.84-6.82A9.23,9.23,0,0,0,345.05,126.47Z"/><path class="cls-5" d="M363.36,115.27a11.33,11.33,0,0,0,10.3,0,3.61,3.61,0,0,0,2.12-3,3.67,3.67,0,0,0-2.15-3,11.33,11.33,0,0,0-10.3,0,3.61,3.61,0,0,0-2.12,3A3.67,3.67,0,0,0,363.36,115.27Z"/><path class="cls-25" d="M364.06,118.05a9.75,9.75,0,0,0,8.89,0,3.09,3.09,0,0,0,1.83-2.57,3.15,3.15,0,0,0-1.86-2.57,9.73,9.73,0,0,0-8.88,0,3.09,3.09,0,0,0-1.83,2.57A3.14,3.14,0,0,0,364.06,118.05Z"/><path class="cls-26" d="M364.06,118.05a9.75,9.75,0,0,0,8.89,0,3.09,3.09,0,0,0,1.83-2.57,3.15,3.15,0,0,0-1.86-2.57,9.73,9.73,0,0,0-8.88,0,3.09,3.09,0,0,0-1.83,2.57A3.14,3.14,0,0,0,364.06,118.05Z"/><path class="cls-24" d="M364.06,118.05a9.75,9.75,0,0,0,8.89,0,3.09,3.09,0,0,0,1.83-2.57,3.15,3.15,0,0,0-1.86-2.57,9.73,9.73,0,0,0-8.88,0,3.09,3.09,0,0,0-1.83,2.57A3.14,3.14,0,0,0,364.06,118.05Z"/><path class="cls-1" d="M375.78,112.29a3.61,3.61,0,0,1-2.12,3,11.33,11.33,0,0,1-10.3,0,3.67,3.67,0,0,1-2.15-3h0V130.2h0a3.67,3.67,0,0,0,2.15,3,11.33,11.33,0,0,0,10.3,0,3.61,3.61,0,0,0,2.12-3h0V112.29Z"/><path class="cls-8" d="M298.4,167.31c13.72,2.26,17.55,7.8,19,12.31l-12.86,9.17-13.7-17.58Z"/><polygon class="cls-7" points="197.03 122.98 213.84 171.68 248.59 152.4 231.97 104.23 197.03 122.98"/><polygon class="cls-26" points="197.03 122.98 213.84 171.68 248.59 152.4 231.97 104.23 197.03 122.98"/><polygon class="cls-9" points="197.03 122.98 213.84 171.68 248.59 152.4 231.97 104.23 197.03 122.98"/><polygon class="cls-3" points="243.43 150.42 229.59 110.32 202.21 125 216.2 165.53 243.43 150.42"/><polygon class="cls-20" points="224.76 113.29 209.55 121.28 208.89 119.25 211.84 116.64 220.18 112.46 223.97 111.75 224.76 113.29"/><polygon class="cls-19" points="220.18 112.46 219.52 110.91 211.38 115.28 211.84 116.64 220.18 112.46"/><polygon class="cls-20" points="224.24 108.38 205.85 118.25 205.05 116.34 223.62 106.59 224.24 108.38"/><path class="cls-19" d="M219.27,108.87c-1.61-5.06-11.22-.29-9.35,4.91Z"/><path class="cls-23" d="M252.55,165.53,238.26,179,216,157a7.8,7.8,0,0,1-2.25-4.57c-1.07-8.32-3.38-14.25-6.34-13.21-1.85.65.53,8.76.53,8.76l-2.78-1.59L201.88,137h-1.47a3.72,3.72,0,0,0-3.5,2.49l-1.39,4a11.78,11.78,0,0,0,4.13,13.33l4.89,3.62a8,8,0,0,1,1.87,2c9.61,14.58,19.89,27,26.14,33.41a6.64,6.64,0,0,0,8.43.87c13.65-9,24.92-24.26,24.92-24.26Z"/><path class="cls-7" d="M205.41,162.48a8.76,8.76,0,0,1,4.31-5.35,10.3,10.3,0,0,1,7.39-1.11l21.19,20.82,14.25-11.31,13.35,6.94c-9.19,12.89-17.84,20.77-23.3,25a8.29,8.29,0,0,1-10.89-.61C213,178.45,205.41,162.48,205.41,162.48Z"/><path class="cls-24" d="M205.41,162.48a8.76,8.76,0,0,1,4.31-5.35,10.3,10.3,0,0,1,7.39-1.11l21.19,20.82,14.25-11.31,13.35,6.94c-9.19,12.89-17.84,20.77-23.3,25a8.29,8.29,0,0,1-10.89-.61C213,178.45,205.41,162.48,205.41,162.48Z"/><path class="cls-24" d="M213.68,163a13,13,0,0,1,9-1.49L217.11,156a10.3,10.3,0,0,0-7.39,1.11,8.76,8.76,0,0,0-4.31,5.35s1,2.19,3.29,5.88A13,13,0,0,1,213.68,163Z"/><path class="cls-8" d="M238.3,176.84a28.08,28.08,0,0,0-6.88,6.72c.17-5.6,1.84-7.92,4.73-8.84Z"/><path class="cls-23" d="M307.07,172.76l30.72,33.47,26.34-18.5a10.1,10.1,0,0,1,7.73-1.66l10.23,2a2.83,2.83,0,0,1,2.29,2.53l.33,3.77a1.8,1.8,0,0,1-1,1.76l-3.22,1.61,2.39,3a2.13,2.13,0,0,1-.32,3h0a2.14,2.14,0,0,1-2.87-.17l-5.2-5.33-1.63,1.16a3.84,3.84,0,0,1-5.17-.67l-1.48-1.78-21.43,22.3a9.47,9.47,0,0,1-12.71.86l-28.72-22.7Z"/><path class="cls-8" d="M374.5,198.18l-4.72-3.81h0a5.5,5.5,0,0,0,4.27,3.73Z"/><polygon class="cls-8" points="380.5 197.69 377.61 194.37 383.72 196.08 380.5 197.69"/><path class="cls-7" d="M362.26,189.05c-3.67,2.57.08,10.07,2.15,10.76l-18.62,20.9a10.61,10.61,0,0,1-14.46,1.3l-29.09-22.79,1.12-1.87,3.71-24.59,30.68,31.64S357.65,189.81,362.26,189.05Z"/><path class="cls-24" d="M362.26,189.05c-3.67,2.57.08,10.07,2.15,10.76l-18.62,20.9a10.61,10.61,0,0,1-14.46,1.3l-29.09-22.79,1.12-1.87,3.71-24.59,30.68,31.64S357.65,189.81,362.26,189.05Z"/><path class="cls-27" d="M362.26,189.05c-1.42.23-4.28,1.77-7.56,3.79a8.16,8.16,0,0,0-.73,6.71,8.3,8.3,0,0,0,6.06,5.18l4.38-4.92C362.34,199.12,358.59,191.62,362.26,189.05Z"/><polygon class="cls-8" points="307.07 172.76 312.15 178 321.78 214.53 302.24 199.22 303.36 197.35 307.07 172.76"/><polygon class="cls-8" points="337.75 204.4 331.75 208.48 335.44 202.03 337.75 204.4"/><path class="cls-7" d="M365,248.85l10.54-43.06A5.08,5.08,0,0,1,378,202.6l26.3-15.14a1,1,0,0,1,.49-.13h0a2.48,2.48,0,0,1,2.39,1.68h0a.94.94,0,0,1,.07.67l-10.53,43.05a5.1,5.1,0,0,1-2.4,3.19L368,251.05a1,1,0,0,1-.69.12h0a3,3,0,0,1-2.19-1.66.3.3,0,0,1,0-.08s0,0,0,0h0A1,1,0,0,1,365,248.85Z"/><path class="cls-26" d="M366.49,249.92l10.53-43a5.1,5.1,0,0,1,2.4-3.19l26.29-15.14a1,1,0,0,1,1.43.46.94.94,0,0,1,.07.67l-10.53,43.05a5.1,5.1,0,0,1-2.4,3.19L368,251.05a1,1,0,0,1-1.5-1.13Z"/><path class="cls-23" d="M383.22,230.32c-2.81-1.24-9.43,6.4-14.9,5.29l1.36-5.52c-8.58,1-11,4.1-14,4.51a28.29,28.29,0,0,1-5.62-.23,26.27,26.27,0,0,1,0,13.18c3,.06,5.18.09,5.93.09,3.89,0,8.43,1.66,12.63.81,8-1.89,11.13-4.8,11.15-8.26,0,0,3.29-2.23,2.27-5.8C382.07,234.39,386,231.55,383.22,230.32Z"/><path class="cls-7" d="M344.55,232.69c-7.53-1.33-10.83-2.62-20-3.09l-6.36-17.81h0c-2.88-8.94-9.71-28.7-15.61-34.7-17,3.63-18.28,11.4-3,48,1.12,2.71,5.4,11.32,8.39,17.28a11,11,0,0,0,9.81,6h26.08A33,33,0,0,0,344.55,232.69Z"/><path class="cls-7" d="M353.42,234c-3.61-.41-6.46-.84-8.87-1.26a33,33,0,0,1-.66,15.68h8.58S356.62,240.25,353.42,234Z"/><path class="cls-24" d="M344.55,232.69c-7.53-1.33-10.83-2.62-20-3.09l-6.36-17.81h0c-2.88-8.94-9.71-28.7-15.61-34.7-17,3.63-18.28,11.4-3,48,1.12,2.71,5.4,11.32,8.39,17.28a11,11,0,0,0,9.81,6h26.08A33,33,0,0,0,344.55,232.69Z"/><path class="cls-27" d="M353.42,234c-3.61-.41-6.46-.84-8.87-1.26a33,33,0,0,1-.66,15.68h8.58S356.62,240.25,353.42,234Z"/><path class="cls-8" d="M324.57,229.6a45.68,45.68,0,0,0-10.94,1.29,24.56,24.56,0,0,1,9.06-6.56Z"/><path class="cls-28" d="M283.56,281.43c6.13-2.64,14.46-7.05,17.6-12.93s2.85-16.63,1.64-23.19l-49.23-13.65C252.08,245.94,239,255.29,239,255.29Z"/><path class="cls-23" d="M214.81,191.23l-4.65-3.45a9.21,9.21,0,0,1-3.17-4.24l-1.1-3a11.46,11.46,0,0,0-3.9-5.21,39.2,39.2,0,0,1-7.14-6.86h0a4.31,4.31,0,0,0-.3,5.43,30.3,30.3,0,0,0,2.84,3.26l-2.56.18a8.91,8.91,0,0,1-5.28-1.29L183,172a1.24,1.24,0,0,0-1.88,1,28.34,28.34,0,0,0,1.88,9.42,10.61,10.61,0,0,0,6.21,6.28c3.46,1.32,6.82,2.47,8.74,3.11a10.72,10.72,0,0,1,3,1.6l6.84,5.08Z"/><path class="cls-7" d="M209.75,186.74l5.88,3.79a11.49,11.49,0,0,1-7.57,9.82l-5.38-5.1S207.88,194.45,209.75,186.74Z"/><path class="cls-27" d="M209.75,186.74l5.88,3.79a11.49,11.49,0,0,1-7.57,9.82l-5.38-5.1S207.88,194.45,209.75,186.74Z"/><path class="cls-7" d="M213.44,196.34a11.65,11.65,0,0,0,2.19-5.81L234,202.39,244.84,172a11.46,11.46,0,0,1,9.32-7.5l5.29-.68-4.94,35.52-8.44,16.93A11.27,11.27,0,0,1,228.83,220l-20.77-19.65A11.67,11.67,0,0,0,213.44,196.34Z"/><path class="cls-29" d="M213.44,196.34a11.65,11.65,0,0,0,2.19-5.81L234,202.39,244.84,172a11.46,11.46,0,0,1,9.32-7.5l5.29-.68-4.94,35.52-8.44,16.93A11.27,11.27,0,0,1,228.83,220l-20.77-19.65A11.67,11.67,0,0,0,213.44,196.34Z"/><polygon class="cls-8" points="234 202.38 240.97 207.61 235.94 196.97 234 202.38"/><g class="cls-13"><polygon class="cls-30" points="248.06 96.52 246.8 96.55 256.49 93.28 257.76 93.24 248.06 96.52"/><path class="cls-12" d="M247.21,97.82a.85.85,0,0,1-.09-.24A.85.85,0,0,0,247.21,97.82Z"/><path class="cls-12" d="M241.24,71.65h0a.79.79,0,0,1,0-.22h0A.79.79,0,0,0,241.24,71.65Z"/><path class="cls-12" d="M241.3,71.42s0,0,0,0,0,0,0,0Z"/><path class="cls-12" d="M247.56,98.08a.29.29,0,0,1-.13,0A.29.29,0,0,0,247.56,98.08Z"/><path class="cls-12" d="M247.26,97.88l.1.11Z"/><polygon class="cls-31" points="252.2 69 252.2 69 252.2 69 252.2 69"/><polygon class="cls-7" points="242.51 72.28 247.05 92.11 248.06 96.52 257.76 93.24 252.2 69 242.51 72.28"/><path class="cls-20" d="M259,93.56l-5.87-25.62a.59.59,0,0,0-.71-.51l-10.81,3.66a.42.42,0,0,0-.18.11l0,0a1,1,0,0,0-.09.13s0,0,0,0h0a.79.79,0,0,0,0,.22.13.13,0,0,0,0,.06.71.71,0,0,0,0,.25l5.87,25.62a.85.85,0,0,0,.09.24l0,.06.1.11.07,0a.29.29,0,0,0,.13,0l.07,0a.68.68,0,0,0,.2,0l10.8-3.65A.75.75,0,0,0,259,93.56ZM252.2,69h0l5.56,24.24-9.7,3.28h0l-1-4.41-4.54-19.83h0L252.2,69Z"/><path class="cls-19" d="M247.43,98l-.07,0-.1-.11,0-.06a.85.85,0,0,1-.09-.24L241.25,72a.71.71,0,0,1,0-.25.13.13,0,0,1,0-.06h0a.79.79,0,0,1,0-.22h0s0,0,0,0a1,1,0,0,1,.09-.13l0,0a.42.42,0,0,1,.18-.11l10.81-3.66.13,0-1.26,0-.14,0-10.8,3.65a.55.55,0,0,0-.19.12l0,0a.75.75,0,0,0-.13.18v0a.53.53,0,0,0-.05.15.13.13,0,0,0,0,.06.2.2,0,0,1,0,.07,1.1,1.1,0,0,0,0,.25l5.87,25.62a.6.6,0,0,0,.57.52l1.27,0h-.06l-.07,0A.29.29,0,0,1,247.43,98Z"/></g><path class="cls-23" d="M240.87,75.9l-1.68,4a9.88,9.88,0,0,0-.74,4.4l1,15,14.15,48A27,27,0,0,0,258,156.1l14.33,18.77,11.76-12.74-13.75-18.06L249,98.31l4.17-4.82a7.31,7.31,0,0,0,1.76-4.06l.49-4.67a1.49,1.49,0,0,0-1.19-1.62h0a1.65,1.65,0,0,0-1.87,1l-1.51,3.71a3.08,3.08,0,0,1-1,1.3h0a3.11,3.11,0,0,1-4.44-.68L243,85.06Z"/><path class="cls-7" d="M250.44,99.39a10.18,10.18,0,0,0-10.58,3.73L252,147.44a22.41,22.41,0,0,0,3.44,7.19L271,176.25l1.33-1.38,11.76-12.74-13.75-18.06Z"/><path class="cls-24" d="M250.44,99.39a10.18,10.18,0,0,0-10.58,3.73L252,147.44a22.41,22.41,0,0,0,3.44,7.19L271,176.25l1.33-1.38,11.76-12.74-13.75-18.06Z"/><path class="cls-24" d="M246.75,105.84a9.28,9.28,0,0,1,6.68.24l-3-6.69a10.18,10.18,0,0,0-10.58,3.73l1.92,7A9.29,9.29,0,0,1,246.75,105.84Z"/><path class="cls-7" d="M269.24,162.83l-9.79,1c-8,7.07-12.15,21.89-10.43,38.27a289.27,289.27,0,0,1,1.21,33.78c21.72,15.86,49.13,12.85,52.57,9.4l-1.61-28.61a14.06,14.06,0,0,1,1.1-6.62c2-4.76,5.71-14.13,6.2-21.4a38,38,0,0,0-4-18.7l-14.22-6.21Z"/><g class="cls-32"><path class="cls-3" d="M269.24,162.83l-9.79,1c-8,7.07-12.15,21.89-10.43,38.27a289.27,289.27,0,0,1,1.21,33.78c21.72,15.86,49.13,12.85,52.57,9.4l-1.61-28.61a14.06,14.06,0,0,1,1.1-6.62c2-4.76,5.71-14.13,6.2-21.4a38,38,0,0,0-4-18.7l-14.22-6.21Z"/></g><path class="cls-7" d="M266.52,177.09c-8.19,18.83-8.06,38.22-8.06,38.22l4,8.66,6.31-8.27a327.69,327.69,0,0,1,.76-38Z"/><path class="cls-7" d="M266.18,170a29.11,29.11,0,0,0,.34,7.11,5.7,5.7,0,0,0,3,.56,24.84,24.84,0,0,0,4.89-5.9L269.56,170Z"/><path class="cls-7" d="M269.56,170c4.22,1.55,8,9.05,8,9.05,11.06-9.4,12.79-15.26,12.79-15.26a22.23,22.23,0,0,0-5.36-5.66Z"/><path class="cls-7" d="M269.56,170c-3.21.09-6.06,4.57-6.06,4.57-.51-7.85,6.06-13.88,6.06-13.88Z"/><g class="cls-33"><path class="cls-3" d="M269.56,170c4.22,1.55,8,9.05,8,9.05,11.06-9.4,12.79-15.26,12.79-15.26a22.23,22.23,0,0,0-5.36-5.66Z"/><path class="cls-3" d="M269.56,170c-3.21.09-6.06,4.57-6.06,4.57-.51-7.85,6.06-13.88,6.06-13.88Z"/></g><path class="cls-19" d="M290.31,126.49a8.7,8.7,0,0,0-5.57-3l-29.12,2.74c-3.36,7.22-.68,12-.68,12-.45,11-.82,18,3.95,20.34,2.6,1.26,6.55,1.8,10.63,1.49a24.86,24.86,0,0,0,9.75-2.63l.16-.08a8.33,8.33,0,0,0,4.17-5.56,44.84,44.84,0,0,0,1-6.52,27.31,27.31,0,0,1,.41-3.72,6.61,6.61,0,0,1,1.63-3.29,3.76,3.76,0,0,1,3.36-1.14,3.37,3.37,0,0,1,.6.23C291.43,132.45,291.67,128.2,290.31,126.49Z"/><path class="cls-23" d="M279.65,127.33a10.35,10.35,0,0,0,.38,6.19,43,43,0,0,1,1.85,6,9.89,9.89,0,0,1-.8,6.07,7,7,0,0,1-4.64,3.76c-3.12.67-6.18-1.18-9.32-1.8a12.87,12.87,0,0,0-8.76,1.58,1.52,1.52,0,0,1-2.29-1.23c-.38-6.34-.37-16.27.55-20.94Z"/><path class="cls-23" d="M282.62,155.65h0Z"/><path class="cls-19" d="M285.16,148.43s-.06,2.57-.13,5.64a8.82,8.82,0,0,0,2.72-4.26A3.92,3.92,0,0,1,285.16,148.43Z"/><path class="cls-19" d="M257.12,121.59,253.5,119a7.87,7.87,0,0,0,1.38,7.23,11.46,11.46,0,0,0,6.38,3.81,24.24,24.24,0,0,0,7.51.35,54.68,54.68,0,0,0,10.83-2,8.67,8.67,0,0,0,4.26-2.27,5.79,5.79,0,0,0,.22-6.73,8.44,8.44,0,0,0-6-3.52,22.49,22.49,0,0,0-7.2.58,21.41,21.41,0,0,1-7.21.52,7.52,7.52,0,0,1-5.81-3.9C255.83,116.46,257.12,121.59,257.12,121.59Z"/><polygon class="cls-25" points="266.25 138.57 260.94 145.1 265.81 146.84 266.25 138.57"/><path class="cls-25" d="M270.27,150.08l-4.1,1.28a2.5,2.5,0,0,0,2.76,1.29A2.3,2.3,0,0,0,270.27,150.08Z"/><path class="cls-26" d="M270.27,150.08l-4.1,1.28a2.5,2.5,0,0,0,2.76,1.29A2.3,2.3,0,0,0,270.27,150.08Z"/><path class="cls-25" d="M267.59,152.57a2.21,2.21,0,0,0,1.34.08,2.08,2.08,0,0,0,1.34-1.87,2.37,2.37,0,0,0-1.59.29A2.46,2.46,0,0,0,267.59,152.57Z"/><path class="cls-28" d="M273.48,140a1.46,1.46,0,1,1-1.38-1.56A1.47,1.47,0,0,1,273.48,140Z"/><path class="cls-28" d="M261.27,138.86a1.46,1.46,0,1,1-1.38-1.56A1.46,1.46,0,0,1,261.27,138.86Z"/><path class="cls-28" d="M260.17,132.9,256.82,135a2.12,2.12,0,0,1,.75-2.28A2.44,2.44,0,0,1,260.17,132.9Z"/><path class="cls-28" d="M272.65,133.4l3.11,2.44a2.13,2.13,0,0,0-.51-2.35A2.42,2.42,0,0,0,272.65,133.4Z"/><path class="cls-23" d="M292.61,139.48a4.08,4.08,0,0,0-2-2.14,3.37,3.37,0,0,0-.6-.23,3.76,3.76,0,0,0-3.36,1.14,6.61,6.61,0,0,0-1.63,3.29,27.31,27.31,0,0,0-.41,3.72,45.55,45.55,0,0,1-1,6.67,8.27,8.27,0,0,1-4.15,5.42l-.15.07a24.86,24.86,0,0,1-9.75,2.63l0,2.94v7l13.76-8.15a3.33,3.33,0,0,0,1.63-2.8c0-1.59.07-3.34.1-5,.07-3.07.13-5.64.13-5.64a3.92,3.92,0,0,0,2.59,1.38,3.62,3.62,0,0,0,1.36-.07,5.15,5.15,0,0,0,3-2.63,9.5,9.5,0,0,0,1-4A8,8,0,0,0,292.61,139.48Z"/><path class="cls-8" d="M281.24,157.22a9.45,9.45,0,0,0,1.69-3.58,8.24,8.24,0,0,1-3.51,3.71l-.15.07a24.86,24.86,0,0,1-9.75,2.63v2.53a24.72,24.72,0,0,0,5.77-1.22A13.08,13.08,0,0,0,281.24,157.22Z"/><path class="cls-20" d="M159.4,358.43c2.81,2.95,7.07,4.2,11.15,4.1a33.76,33.76,0,0,0,11.78-3c3.77-1.54,8.5-5.88,12.58-5.8a98.76,98.76,0,0,0,11.92-.82,62.14,62.14,0,0,0-1.7-16.14l-19-.5c-5.14,7-15.13,12.88-22.68,15.08a6.66,6.66,0,0,0-4.7,5,.49.49,0,0,1,0,.12A8.13,8.13,0,0,0,159.4,358.43Z"/><path class="cls-28" d="M194.91,353.75c-4.08-.08-8.81,4.26-12.58,5.8a33.76,33.76,0,0,1-11.78,3c-4.08.1-8.34-1.15-11.15-4.1a8.13,8.13,0,0,1-.66-1.94.49.49,0,0,0,0-.12,6,6,0,0,0,0,2.54,8.13,8.13,0,0,0,.66,1.94c2.81,2.95,7.07,4.2,11.15,4.09a33.53,33.53,0,0,0,11.78-3c3.77-1.55,8.5-5.89,12.58-5.81a86.14,86.14,0,0,0,11.73-.68c.1-.84.15-1.7.19-2.55A98.76,98.76,0,0,1,194.91,353.75Z"/><path class="cls-28" d="M248.64,364.39a27.15,27.15,0,0,1-.57,5.77,13.38,13.38,0,0,1-5.27,8.42c-2.45,1.61-5.47,2.05-8.39,2.23a18.56,18.56,0,0,1-7.67-.79,8.76,8.76,0,0,1-4.49-3.67s0,.07,0,.1a8,8,0,0,0,5.17,5.38,18.52,18.52,0,0,0,7.67.79c2.92-.18,5.94-.62,8.38-2.23a13.39,13.39,0,0,0,5.28-8.42,28.51,28.51,0,0,0,.57-5.77,9.74,9.74,0,0,1,3.09-7.05c.48-.45.93-.91,1.35-1.39a3.44,3.44,0,0,0,.82-2.52c0-.36-.06-.71-.11-1.05-.69.81-2.34,2.76-2.75,3.15A9.73,9.73,0,0,0,248.64,364.39Z"/><path class="cls-20" d="M234.09,344.29a21.11,21.11,0,0,1-1.48,11.7,44.82,44.82,0,0,1-6.2,10.18,30.94,30.94,0,0,0-3.24,4.73,8.52,8.52,0,0,0-.92,5.45,8.76,8.76,0,0,0,4.49,3.67,18.56,18.56,0,0,0,7.67.79c2.92-.18,5.94-.62,8.39-2.23a13.38,13.38,0,0,0,5.27-8.42,27.15,27.15,0,0,0,.57-5.77,9.73,9.73,0,0,1,3.1-7.05c.41-.39,2.06-2.34,2.75-3.15a21.36,21.36,0,0,0-2.84-8.17Z"/><path class="cls-28" d="M216.14,310.38c-2.36,9.94-3.95,16.19-8.27,29.54,0,0-16.71,3.58-23.3-2.94l7.52-36.36Z"/><path class="cls-28" d="M256.88,313.24c-.64,10.18-.27,19.37-2.27,33.26,0,0-14.24,4.73-21.84-.58l-1.24-24.29Z"/><polygon class="cls-20" points="89.85 244.3 89.85 332.67 92.98 330.86 92.98 242.49 89.85 244.3"/><polygon class="cls-19" points="89.85 244.3 89.85 332.67 86.73 330.86 86.73 242.49 89.85 244.3"/><polygon class="cls-20" points="92.98 267.86 166.11 225.64 166.11 222.28 92.98 264.5 92.98 267.86"/><polygon class="cls-19" points="92.98 260.96 162.99 220.47 166.11 222.28 92.98 264.5 92.98 260.96"/><polygon class="cls-20" points="310.6 283.77 310.6 372.15 313.72 370.34 313.72 281.97 310.6 283.77"/><polygon class="cls-19" points="310.6 283.77 310.6 372.15 307.47 370.34 307.47 281.97 310.6 283.77"/><polygon class="cls-20" points="234.34 327.82 234.34 416.19 237.46 414.38 237.46 326.01 234.34 327.82"/><polygon class="cls-19" points="234.34 327.82 234.34 416.19 231.21 414.38 231.21 326.01 234.34 327.82"/><polygon class="cls-20" points="237.46 351.38 310.6 309.16 310.6 305.8 237.46 348.03 237.46 351.38"/><polygon class="cls-19" points="237.46 344.48 307.47 304 310.6 305.8 237.46 348.03 237.46 344.48"/><g class="cls-22"><polygon class="cls-3" points="310.6 283.77 310.6 372.15 313.72 370.34 313.72 281.97 310.6 283.77"/><polygon class="cls-3" points="310.6 283.77 310.6 372.15 307.47 370.34 307.47 281.97 310.6 283.77"/><polygon class="cls-3" points="234.34 327.82 234.34 416.19 237.46 414.38 237.46 326.01 234.34 327.82"/><polygon class="cls-3" points="234.34 327.82 234.34 416.19 231.21 414.38 231.21 326.01 234.34 327.82"/><polygon class="cls-3" points="237.46 351.38 310.6 309.16 310.6 305.8 237.46 348.03 237.46 351.38"/><polygon class="cls-3" points="237.46 344.48 307.47 304 310.6 305.8 237.46 348.03 237.46 344.48"/></g><g class="cls-22"><polygon class="cls-3" points="89.85 244.3 89.85 332.67 92.98 330.86 92.98 242.49 89.85 244.3"/><polygon class="cls-3" points="89.85 244.3 89.85 332.67 86.73 330.86 86.73 242.49 89.85 244.3"/><polygon class="cls-3" points="92.98 267.86 166.11 225.64 166.11 222.28 92.98 264.5 92.98 267.86"/><polygon class="cls-3" points="92.98 260.96 162.99 220.47 166.11 222.28 92.98 264.5 92.98 260.96"/></g><polygon class="cls-7" points="234.34 319.29 86.72 234.21 166.11 188.36 313.72 273.43 234.34 319.29"/><polygon class="cls-7" points="234.34 327.82 86.72 242.49 86.72 234.21 234.34 319.29 234.34 327.82"/><polygon class="cls-7" points="234.34 319.28 313.72 273.42 313.72 281.97 234.34 327.82 234.34 319.28"/><polygon class="cls-24" points="234.34 319.29 86.72 234.21 166.11 188.36 313.72 273.43 234.34 319.29"/><polygon class="cls-21" points="234.34 319.28 313.72 273.42 313.72 281.97 234.34 327.82 234.34 319.28"/><polygon class="cls-9" points="234.34 327.82 86.72 242.49 86.72 234.21 234.34 319.29 234.34 327.82"/><polygon class="cls-8" points="166.11 188.36 313.71 273.43 313.72 273.42 313.72 281.97 234.34 327.82 86.72 242.49 86.72 234.21 166.11 188.36"/><polygon class="cls-2" points="173.51 208.6 161.68 234.49 130.78 229.7 142.61 203.81 173.51 208.6"/><polygon class="cls-11" points="185.12 213.62 158.37 235.43 132.29 224.68 159.03 202.87 185.12 213.62"/><polygon class="cls-3" points="190.59 206.32 206.62 222.37 166.6 235.74 150.56 219.69 190.59 206.32"/><path class="cls-20" d="M166.76,250l32.39-18.83a7.35,7.35,0,0,1,6.65,0l53.44,30.86a2.37,2.37,0,0,1,1.37,1.82h0V266h0a2.15,2.15,0,0,1,0,.43s0,0,0,0a1.92,1.92,0,0,1-.23.45l0,.05a2.7,2.7,0,0,1-.4.45l0,0a3.55,3.55,0,0,1-.6.43l-32.39,18.82a4.6,4.6,0,0,1-.93.41l-.36.11-.47.12c-.19,0-.38.07-.57.09l-.14,0a7,7,0,0,1-.79.05h-.13a6.81,6.81,0,0,1-.78-.05h-.12a6.35,6.35,0,0,1-.76-.13l-.13,0a6.17,6.17,0,0,1-.65-.2l-.12,0a5.93,5.93,0,0,1-.72-.34l-53.44-30.85a4.22,4.22,0,0,1-.6-.43,1.22,1.22,0,0,1-.15-.17,2.81,2.81,0,0,1-.29-.31c0-.06-.06-.13-.1-.2a2.19,2.19,0,0,1-.16-.3,1.66,1.66,0,0,1,0-.22,1.57,1.57,0,0,1-.05-.3V252A2.33,2.33,0,0,1,166.76,250Z"/><path class="cls-26" d="M260.61,263.89a1.67,1.67,0,0,1-.05.59.06.06,0,0,0,0,0,1.8,1.8,0,0,1-.23.46l0,0a2.31,2.31,0,0,1-.4.44l0,0a3.52,3.52,0,0,1-.6.42l-32.39,18.83a5.21,5.21,0,0,1-.93.4l-.36.11a3.59,3.59,0,0,1-.47.12,5.67,5.67,0,0,1-.57.1l-.14,0a7,7,0,0,1-.79,0h-.13a6.79,6.79,0,0,1-.78,0h-.12c-.26,0-.51-.08-.76-.13l-.13,0a4.47,4.47,0,0,1-.65-.2l-.12,0a4.69,4.69,0,0,1-.72-.33l-53.44-30.86a3.07,3.07,0,0,1-.6-.43c-.06-.05-.1-.11-.15-.16a2.81,2.81,0,0,1-.29-.31c0-.07-.06-.14-.1-.2a1.82,1.82,0,0,1-.16-.31,1.46,1.46,0,0,1,0-.22,1.57,1.57,0,0,1-.05-.3v1.9a1.57,1.57,0,0,0,.05.3,1.66,1.66,0,0,0,0,.22,2.19,2.19,0,0,0,.16.3c0,.07.06.14.1.2a2.81,2.81,0,0,0,.29.31,1.22,1.22,0,0,0,.15.17,4.22,4.22,0,0,0,.6.43l53.44,30.85a5.93,5.93,0,0,0,.72.34l.12,0a6.17,6.17,0,0,0,.65.2l.13,0a6.35,6.35,0,0,0,.76.13h.12a6.81,6.81,0,0,0,.78.05h.13a7,7,0,0,0,.79-.05l.14,0c.19,0,.38-.06.57-.09l.47-.12.36-.11a4.6,4.6,0,0,0,.93-.41l32.39-18.82a3.55,3.55,0,0,0,.6-.43l0,0a2.7,2.7,0,0,0,.4-.45l0-.05a1.92,1.92,0,0,0,.23-.45s0,0,0,0a2.15,2.15,0,0,0,0-.43h0V263.9Z"/><path class="cls-19" d="M169.92,252l51.92,30a.92.92,0,0,0,.2.1l.12,0a2.54,2.54,0,0,0,.4.12l.29.06.2,0,.5,0h0a3.45,3.45,0,0,0,.53,0l.34-.06.42-.11a3.88,3.88,0,0,0,.36-.15l16.7-9.71-53.63-31Z"/><path class="cls-28" d="M223.61,282.3h0Z"/><path class="cls-19" d="M219.31,243.72l-9.76,5.74a1,1,0,0,0,0,1.71l14.61,8.43a1.61,1.61,0,0,0,1.63,0l9.77-5.74a1,1,0,0,0,0-1.71L221,243.71A1.63,1.63,0,0,0,219.31,243.72Z"/><path class="cls-20" d="M158,212.3h0l1.28-.64h0a1.58,1.58,0,0,1,1.43.09l53.81,31.29a6.47,6.47,0,0,1,3.15,4.6l5.53,35.18a1.58,1.58,0,0,1-.9,1.7h0l-1.24.62h0a1.63,1.63,0,0,1-1.39-.11l-53.81-31.29a6.5,6.5,0,0,1-3.15-4.6L157.23,214A1.61,1.61,0,0,1,158,212.3Z"/><path class="cls-3" d="M187.38,244.5a11.85,11.85,0,0,1,5.34,7.69c.35,2.74-1.46,3.76-4.07,2.26a11.94,11.94,0,0,1-5.34-7.7C183,244,184.79,243,187.38,244.5Z"/><path class="cls-26" d="M222.14,283.37l-5.53-35.18a6.47,6.47,0,0,0-3.15-4.6L159.65,212.3a1.6,1.6,0,0,0-1.61,0h0l1.28-.64h0a1.58,1.58,0,0,1,1.43.09l53.81,31.29a6.47,6.47,0,0,1,3.15,4.6l5.53,35.18a1.58,1.58,0,0,1-.9,1.7h0l-1.24.62h0A1.61,1.61,0,0,0,222.14,283.37Z"/><path class="cls-23" d="M304.53,170,284,225l-33.76,13.12a11.91,11.91,0,0,1-5.44.84l-9.07-1.58a6.05,6.05,0,0,0-3.67.86L225.79,242a6.92,6.92,0,0,0-1.67,1.43l-3.06,3.63a2.29,2.29,0,0,0,.42,3.35l1.93,1.38a6.85,6.85,0,0,0,7.07.54l4.84-2.44,2.24.54A22.63,22.63,0,0,0,252.11,249h0l36.63-7.4a16.26,16.26,0,0,0,11.88-10.25s17.51-41.54,13.37-50.93C312.2,176.39,304.53,170,304.53,170Z"/><path class="cls-7" d="M304.53,170l-21.19,54.34-33.77,12.91c6.3,3.52,6.62,11.39,6,12.32l35.74-7.48a13.9,13.9,0,0,0,10.16-8.7l14.35-38.05A19.74,19.74,0,0,0,304.53,170Z"/><path class="cls-29" d="M304.53,170l-21.19,54.34-33.77,12.91c6.3,3.52,6.62,11.39,6,12.32l35.74-7.48a13.9,13.9,0,0,0,10.16-8.7l14.35-38.05A19.74,19.74,0,0,0,304.53,170Z"/><path class="cls-29" d="M263.45,240.05a13.48,13.48,0,0,0-4.71-6.33l-9.17,3.51c6.3,3.52,6.62,11.39,6,12.32l8.21-1.72A13.48,13.48,0,0,0,263.45,240.05Z"/><path class="cls-8" d="M283.34,224.32c6.21.08,10.55,2.78,11.2,4.74-1.06-9.32-10.06-7.67-10.06-7.67Z"/></g><g id="Speech_bubbles" data-name="Speech bubbles"><path class="cls-7" d="M148.58,118.76,117,136.89a6.22,6.22,0,0,0-3.1,5.35v27.24a6.09,6.09,0,0,0,9.32,5l5.49-3.14.5.81a.27.27,0,0,0,.08.07h0l.06,0h0c.91.6,2.5,1.45,2.85,1.64v0a.33.33,0,0,0,.42-.2l2-5.74h0l20.17-11.53a6.16,6.16,0,0,0,3.11-5.35V123.77C157.9,119.32,151.35,117.17,148.58,118.76Z"/><path class="cls-12" d="M122.47,140.63h0Z"/><path class="cls-9" d="M129.18,172.17a.27.27,0,0,0,.08.07h0l.06,0h0c.91.6,2.5,1.45,2.85,1.64v0a.29.29,0,0,1-.19-.14l-2-3.17.39-.22h0l-1.73,1Z"/><path class="cls-29" d="M120.81,142.7a6.35,6.35,0,0,1,1.65-2.07h0a5.4,5.4,0,0,1,.74-.51L154.82,122a2.05,2.05,0,0,1,3.08,1.78c0-4.45-6.55-6.6-9.32-5L117,136.89a6.12,6.12,0,0,0-2.3,2.33Z"/><path class="cls-9" d="M120.11,172.72V145.47a5.84,5.84,0,0,1,0-.73,6.58,6.58,0,0,1,.65-2l-6.14-3.48a6.16,6.16,0,0,0-.8,3v27.24a6.09,6.09,0,0,0,9.32,5A2.06,2.06,0,0,1,120.11,172.72Z"/><polygon class="cls-3" points="132.5 156.66 132.53 164.13 126.6 167.55 126.58 160.09 132.5 156.66"/><polygon class="cls-3" points="142 145.7 142.04 158.63 136.12 162.05 136.08 149.12 142 145.7"/><path class="cls-3" d="M150,129.06c.19-.11.33-.11.42,0a.49.49,0,0,1,.07.48l-1.28,4.61a1.1,1.1,0,0,1-.44.61l-.17.06c-.24,0-.37-.21-.28-.55l.75-2.7-6.82,9a.71.71,0,0,1-.25.24.4.4,0,0,1-.25.06l-1.81-.24-5.44,7.51a1,1,0,0,1-.27.25.46.46,0,0,1-.27.06l-1.46-.3-4.93,7.16a1.05,1.05,0,0,1-.29.27.3.3,0,0,1-.37,0c-.16-.15-.13-.51.09-.82l5.2-7.54a.93.93,0,0,1,.28-.28.39.39,0,0,1,.27-.05l1.47.3,5.43-7.5a.89.89,0,0,1,.27-.25.43.43,0,0,1,.25-.07l1.82.25,6.28-8.27L146,132.82c-.28.16-.49.06-.51-.21a1,1,0,0,1,.44-.84Z"/><polygon class="cls-3" points="151.51 137.19 151.56 153.14 145.63 156.56 145.59 140.61 151.51 137.19"/><path class="cls-7" d="M189.28,39l-31.6,18.13a6.22,6.22,0,0,0-3.1,5.35v23a6.09,6.09,0,0,0,9.32,5l5.49-3.14.5.81a.27.27,0,0,0,.08.07h0l.06,0h0c.9.6,2.49,1.45,2.85,1.64v0a.33.33,0,0,0,.42-.21l2-5.73h0L195.5,72.47a6.15,6.15,0,0,0,3.1-5.35V44.05C198.6,39.6,192.05,37.45,189.28,39Z"/><path class="cls-12" d="M163.17,60.91Z"/><path class="cls-9" d="M169.89,88.2a.27.27,0,0,0,.08.07h0l.06,0h0c.9.6,2.49,1.45,2.85,1.64v0a.31.31,0,0,1-.2-.14l-2-3.17.39-.22h0l-1.72,1Z"/><path class="cls-29" d="M161.52,63a6.35,6.35,0,0,1,1.65-2.07h0a5.5,5.5,0,0,1,.75-.51l31.6-18.13a2.05,2.05,0,0,1,3.08,1.78c0-4.45-6.55-6.6-9.32-5l-31.6,18.13a6.12,6.12,0,0,0-2.3,2.33Z"/><path class="cls-9" d="M160.82,88.75v-23a5.84,5.84,0,0,1,.05-.73,6.58,6.58,0,0,1,.65-2l-6.14-3.48a6.16,6.16,0,0,0-.8,3v23a6.09,6.09,0,0,0,9.32,5A2.06,2.06,0,0,1,160.82,88.75Z"/><path class="cls-3" d="M170.53,69c1.56-.89,2.82-.17,2.82,1.62a6.15,6.15,0,0,1-2.8,4.85c-1.55.9-2.81.17-2.82-1.61A6.22,6.22,0,0,1,170.53,69Z"/><path class="cls-3" d="M180.94,63c1.56-.89,2.82-.17,2.83,1.61A6.19,6.19,0,0,1,181,69.42c-1.55.9-2.81.17-2.82-1.61A6.22,6.22,0,0,1,180.94,63Z"/><path class="cls-3" d="M191.36,56.94c1.55-.89,2.81-.17,2.82,1.61a6.17,6.17,0,0,1-2.8,4.85c-1.55.9-2.82.18-2.82-1.6A6.18,6.18,0,0,1,191.36,56.94Z"/><path class="cls-7" d="M309.94,48.67l31.36,18A6.12,6.12,0,0,1,343.58,69a6.05,6.05,0,0,1,.8,3V94.79a6.05,6.05,0,0,1-9.25,5l-5.45-3.12-.49.8s-.05,0-.08.07v0l-.06,0h0c-.9.6-2.48,1.44-2.83,1.63v0a.33.33,0,0,1-.42-.2l-2-5.69h0l-20-11.44a6.11,6.11,0,0,1-3.09-5.31V53.65C300.69,49.23,307.2,47.1,309.94,48.67Z"/><path class="cls-12" d="M335.85,70.38Z"/><path class="cls-9" d="M329.19,97.45s-.05,0-.08.07v0l-.06,0h0c-.9.6-2.48,1.44-2.83,1.63v0a.29.29,0,0,0,.19-.14l1.95-3.14-.39-.22h0l1.71,1Z"/><path class="cls-29" d="M337.49,72.43a6.12,6.12,0,0,0-1.64-2.05h0a5.4,5.4,0,0,0-.74-.51l-31.36-18a2,2,0,0,0-3.06,1.77c0-4.42,6.51-6.55,9.25-5l31.36,18A6.12,6.12,0,0,1,343.58,69Z"/><path class="cls-9" d="M338.18,98V75.18a4.21,4.21,0,0,0-.05-.72,6.25,6.25,0,0,0-.64-2L343.58,69a6.05,6.05,0,0,1,.8,3V94.79a6.05,6.05,0,0,1-9.25,5A2,2,0,0,0,338.18,98Z"/><path class="cls-3" d="M314.25,63a3.81,3.81,0,0,0-3.8-.39c-2.12,1.19-2.13,5.11,0,8.74l1.22,2.12,7.58,13.13,7.64-4.34,1.23-.71c2.11-1.2,2.12-5.11,0-8.74a10.88,10.88,0,0,0-3.79-4,3.83,3.83,0,0,0-3.81-.39l-1.24.7L318.05,67A10.9,10.9,0,0,0,314.25,63Z"/></g></g></svg>